<svg style="position: absolute; width: 0; height: 0;" width="0" height="0" version="1.1" xmlns="http://www.w3.org/2000/svg" xmlns:xlink="http://www.w3.org/1999/xlink"><defs><symbol id=".null" viewBox="0 -270 2048 2048"><path d=""></path></symbol><symbol id="nonmarkingreturn" viewBox="0 -270 2048 2048"><path d=""></path></symbol><symbol id="space" viewBox="0 -270 2048 2048"><path d=""></path></symbol><symbol id="exclam" viewBox="0 -270 2048 2048"><path d="M68 0 q-40 35 -40 40 l0 484 q35 40 40 40 q120 -115 120 -120 l0 -324 q-115 -120 -120 -120 ZM148 536 q-120 115 -120 120 l0 320 q115 120 120 120 q40 -35 40 -40 l0 -480 q-35 -40 -40 -40 ZM64 1184 q-28 22 -28 28 l0 4 q27 36 48 36 l8 0 q20 0 64 -56 l0 -4 q0 -7 -8 -8 l-84 0 ZM176 1224 q-28 16 -28 48 l0 36 q0 5 52 48 l4 0 q12 -6 12 -12 l0 -84 q-31 -36 -36 -36 l-4 0 ZM16 1248 q-16 10 -16 16 l0 84 q31 36 36 36 l8 0 q0 -8 24 -32 l0 -52 q-46 -52 -52 -52 ZM112 1356 q-52 46 -52 56 l0 4 q0 8 8 8 l84 0 q32 -27 32 -32 q-27 -36 -52 -36 l-20 0 Z"></path></symbol><symbol id="quotedbl" viewBox="0 -270 2048 2048"><path d="M20 1783 q-20 15 -20 20 l0 292 q15 20 20 20 q60 -55 60 -60 l0 -212 q-55 -60 -60 -60 ZM221 1783 q-20 15 -20 20 l0 292 q15 20 20 20 q60 -55 60 -60 l0 -212 q-55 -60 -60 -60 Z"></path></symbol><symbol id="numbersign" viewBox="0 -270 2048 2048"><path d="M1068 0 q-9 0 -156 48 q-21 28 -228 416 q0 30 16 60 q145 -48 152 -48 q27 -32 232 -420 q0 -20 -16 -56 ZM1736 0 q-9 0 -156 48 q-21 28 -228 416 q0 30 16 60 q145 -48 152 -48 q27 -32 232 -420 q0 -20 -16 -56 ZM260 416 q-40 35 -40 40 q115 120 120 120 l168 0 q120 -115 120 -120 q-35 -40 -40 -40 l-328 0 ZM956 432 q-40 35 -40 40 q115 120 120 120 l168 0 q120 -115 120 -120 q-35 -40 -40 -40 l-328 0 ZM1612 432 q-40 35 -40 40 q115 120 120 120 l168 0 q120 -115 120 -120 q-35 -40 -40 -40 l-328 0 ZM824 500 q-145 48 -152 48 q-27 32 -232 420 q0 20 16 56 q9 0 156 -48 q21 -28 228 -416 q0 -30 -16 -60 ZM1492 500 q-145 48 -152 48 q-27 32 -232 420 q0 20 16 56 q9 0 156 -48 q21 -28 228 -416 q0 -30 -16 -60 ZM120 848 q-120 115 -120 120 q35 40 40 40 l328 0 q40 -35 40 -40 q-115 -120 -120 -120 l-168 0 ZM804 848 q-120 115 -120 120 q35 40 40 40 l328 0 q40 -35 40 -40 q-115 -120 -120 -120 l-168 0 ZM1472 848 q-120 115 -120 120 q35 40 40 40 l328 0 q40 -35 40 -40 q-115 -120 -120 -120 l-168 0 ZM580 1008 q-7 0 -152 40 q-22 6 -136 220 q41 151 48 160 q11 0 48 -12 q27 -31 208 -352 q-7 -43 -16 -56 ZM1248 1008 q-7 0 -152 40 q-22 6 -136 220 q41 151 48 160 q11 0 48 -12 q27 -31 208 -352 q-7 -43 -16 -56 Z"></path></symbol><symbol id="dollar" viewBox="0 -270 2048 2048"><path d="M320 -270 q-40 35 -40 40 l0 184 q0 8 8 8 l144 0 q8 0 8 -8 l0 -104 q-115 -120 -120 -120 ZM120 18 q-40 35 -40 40 q115 120 120 120 l408 0 q120 -115 120 -120 q-35 -40 -40 -40 l-568 0 ZM40 62 q-40 35 -40 40 l0 568 q35 40 40 40 q120 -115 120 -120 l0 -408 q-115 -120 -120 -120 ZM296 210 q-7 0 -8 8 l0 368 q0 8 8 8 l128 0 q8 0 8 -8 l0 -368 q0 -7 -8 -8 l-128 0 ZM160 646 q-80 75 -80 80 l0 4 q75 80 80 80 l472 0 q80 -75 80 -80 l0 -4 q-75 -80 -80 -80 l-472 0 ZM764 754 q-120 115 -120 120 l0 408 q115 120 120 120 q40 -35 40 -40 l0 -568 q-35 -40 -40 -40 ZM296 854 q-7 0 -8 8 l0 368 q0 8 8 8 l128 0 q8 0 8 -8 l0 -368 q0 -7 -8 -8 l-128 0 ZM196 1286 q-120 115 -120 120 q35 40 40 40 l568 0 q40 -35 40 -40 q-115 -120 -120 -120 l-408 0 ZM288 1482 q-7 0 -8 8 l0 104 q115 120 120 120 q40 -35 40 -40 l0 -184 q0 -7 -8 -8 l-144 0 Z"></path></symbol><symbol id="percent" viewBox="0 -270 2048 2048"><path d="M88 0 q-64 59 -64 64 l0 4 q15 20 20 20 l108 0 q64 -59 64 -64 l0 -4 q-15 -20 -20 -20 l-108 0 ZM788 0 q-9 0 -156 48 q-21 28 -228 416 q0 30 16 60 q145 -48 152 -48 q27 -32 232 -420 q0 -20 -16 -56 ZM220 40 q-20 15 -20 20 l0 108 q59 64 64 64 l4 0 q20 -15 20 -20 l0 -108 q-59 -64 -64 -64 l-4 0 ZM20 88 q-20 15 -20 20 l0 108 q59 64 64 64 l4 0 q20 -15 20 -20 l0 -108 q-59 -64 -64 -64 l-4 0 ZM136 232 q-64 59 -64 64 l0 4 q15 20 20 20 l108 0 q64 -59 64 -64 l0 -4 q-15 -20 -20 -20 l-108 0 ZM544 500 q-145 48 -152 48 q-27 32 -232 420 q0 20 16 56 q9 0 156 -48 q21 -28 228 -416 q0 -30 -16 -60 ZM300 1008 q-7 0 -152 40 q-22 6 -136 220 q41 151 48 160 q11 0 48 -12 q27 -31 208 -352 q-7 -43 -16 -56 ZM604 1108 q-64 59 -64 64 l0 4 q15 20 20 20 l108 0 q64 -59 64 -64 l0 -4 q-15 -20 -20 -20 l-108 0 ZM736 1148 q-20 15 -20 20 l0 108 q59 64 64 64 l4 0 q20 -15 20 -20 l0 -108 q-59 -64 -64 -64 l-4 0 ZM536 1196 q-20 15 -20 20 l0 108 q59 64 64 64 l4 0 q20 -15 20 -20 l0 -108 q-59 -64 -64 -64 l-4 0 ZM652 1340 q-64 59 -64 64 l0 4 q15 20 20 20 l108 0 q64 -59 64 -64 l0 -4 q-15 -20 -20 -20 l-108 0 Z"></path></symbol><symbol id="ampersand" viewBox="0 -270 2048 2048"><path d="M200 0 q-40 35 -40 40 q115 120 120 120 l168 0 q120 -115 120 -120 q-35 -40 -40 -40 l-328 0 ZM608 72 q-120 115 -120 120 l0 168 q115 120 120 120 q40 -35 40 -40 l0 -328 q-35 -40 -40 -40 ZM156 96 q-40 35 -40 40 l0 328 q35 40 40 40 q120 -115 120 -120 l0 -168 q-115 -120 -120 -120 ZM308 416 q-120 115 -120 120 q35 40 40 40 l328 0 q40 -35 40 -40 q-115 -120 -120 -120 l-168 0 ZM84 616 q-40 35 -40 40 q115 120 120 120 l408 0 q120 -115 120 -120 q-35 -40 -40 -40 l-568 0 ZM716 688 q-120 115 -120 120 l0 408 q115 120 120 120 q40 -35 40 -40 l0 -56 l40 36 l328 0 q40 -35 40 -40 q-115 -120 -120 -120 l-168 0 l-120 116 l0 -324 l120 116 l168 0 q120 -115 120 -120 q-35 -40 -40 -40 l-328 0 l-40 36 l0 -172 q-35 -40 -40 -40 ZM40 700 q-40 35 -40 40 l0 568 q35 40 40 40 q120 -115 120 -120 l0 -408 q-115 -120 -120 -120 ZM164 1276 q-120 115 -120 120 q35 40 40 40 l568 0 q40 -35 40 -40 q-115 -120 -120 -120 l-408 0 Z"></path></symbol><symbol id="quotesingle" viewBox="0 -270 2048 2048"><path d="M20 1783 q-20 15 -20 20 l0 292 q15 20 20 20 q60 -55 60 -60 l0 -212 q-55 -60 -60 -60 Z"></path></symbol><symbol id="parenleft" viewBox="0 -270 2048 2048"><path d="M380 0 l-208 0 q-5 0 -80 80 q0 5 84 84 l200 0 q5 0 84 -84 q0 -5 -80 -80 ZM40 108 q-5 0 -40 40 l0 568 q0 5 40 40 q5 0 124 -124 l0 -392 q0 -23 -124 -132 ZM40 808 q-27 14 -40 32 l0 432 q13 18 40 32 q98 -70 120 -92 l0 -312 q-22 -22 -120 -92 ZM376 1248 l-200 0 q-5 0 -84 84 q0 5 80 80 l208 0 q5 0 80 -80 q0 -5 -84 -84 Z"></path></symbol><symbol id="parenright" viewBox="0 -270 2048 2048"><path d="M80 0 q-80 75 -80 80 q79 84 84 84 l200 0 q84 -79 84 -84 q-75 -80 -80 -80 l-208 0 ZM420 108 q-124 109 -124 132 l0 392 q119 124 124 124 q40 -35 40 -40 l0 -568 q-35 -40 -40 -40 ZM420 808 q-98 70 -120 92 l0 312 q22 22 120 92 q27 -14 40 -32 l0 -432 q-13 -18 -40 -32 ZM84 1248 q-84 79 -84 84 q75 80 80 80 l208 0 q80 -75 80 -80 q-79 -84 -84 -84 l-200 0 Z"></path></symbol><symbol id="asterisk" viewBox="0 -270 2048 2048"><path d="M312 596 q-16 11 -16 15 l0 233 q0 6 7 6 l96 0 q6 0 6 -6 l0 -155 q-89 -93 -93 -93 ZM520 673 q-83 80 -84 84 l0 87 q0 6 6 6 l65 0 q18 0 56 -46 l0 -124 q0 -6 -6 -7 l-37 0 ZM86 717 q-6 0 -7 6 l0 37 q82 90 100 90 l80 0 q6 0 6 -6 l0 -71 q-51 -56 -55 -56 l-124 0 ZM89 881 q-83 79 -84 84 l0 3 q14 22 31 22 l223 0 q6 0 6 -6 l0 -97 q0 -5 -6 -6 l-170 0 ZM303 881 q-6 0 -7 6 l0 97 q0 6 7 6 l96 0 q6 0 6 -6 l0 -97 q0 -5 -6 -6 l-96 0 ZM442 881 q-5 0 -6 6 l0 97 q0 6 6 6 l146 0 q18 0 93 -84 l0 -3 q-17 -22 -22 -22 l-217 0 ZM172 1021 q-49 45 -49 49 l0 124 q0 7 6 7 l37 0 q99 -96 99 -100 l0 -74 q0 -5 -6 -6 l-87 0 ZM303 1021 q-6 0 -7 6 l0 170 q74 78 78 78 q31 -27 31 -31 l0 -217 q0 -5 -6 -6 l-96 0 ZM442 1021 q-5 0 -6 6 l0 90 q36 40 40 40 l124 0 q7 0 7 -6 l0 -37 q-90 -93 -93 -93 l-72 0 Z"></path></symbol><symbol id="plus" viewBox="0 -270 2048 2048"><path d="M320 205 q-40 35 -40 40 l0 312 q0 8 8 8 l144 0 q8 0 8 -8 l0 -232 q-115 -120 -120 -120 ZM40 605 q-40 35 -40 40 q115 120 120 120 l456 0 q120 -115 120 -120 q-35 -40 -40 -40 l-616 0 ZM288 805 q-7 0 -8 8 l0 232 q115 120 120 120 q40 -35 40 -40 l0 -312 q0 -7 -8 -8 l-144 0 Z"></path></symbol><symbol id="comma" viewBox="0 -270 2048 2048"><path d="M216 -103 q-90 -96 -96 -96 l-8 0 q-96 90 -96 96 l0 8 q20 291 26 291 l8 0 q166 -285 166 -291 l0 -8 Z"></path></symbol><symbol id="hyphen" viewBox="0 -270 2048 2048"><path d="M89 810 q-80 75 -80 80 l0 4 q75 80 80 80 l472 0 q80 -75 80 -80 l0 -4 q-75 -80 -80 -80 l-472 0 Z"></path></symbol><symbol id="period" viewBox="0 -270 2048 2048"><path d="M6 100 q90 96 96 96 l8 0 q96 -90 96 -96 l0 -8 q-90 -96 -96 -96 l-8 0 q-96 90 -96 96 l0 8 Z"></path></symbol><symbol id="slash" viewBox="0 -270 2048 2048"><path d="M776 0 q-9 0 -156 48 q-21 28 -228 416 q0 30 16 60 q143 -48 156 -48 q224 -404 224 -420 l0 -4 q0 -33 -12 -52 ZM532 500 q-145 48 -152 48 q-27 32 -232 420 q0 20 16 56 q9 0 156 -48 q21 -28 228 -416 q0 -30 -16 -60 ZM288 1008 q-7 0 -152 40 q-20 3 -136 220 q40 147 48 160 q11 0 48 -12 q26 -30 208 -352 q-7 -43 -16 -56 Z"></path></symbol><symbol id="zero" viewBox="0 -270 2048 2048"><path d="M120 0 q-40 35 -40 40 q115 120 120 120 l408 0 q120 -115 120 -120 q-35 -40 -40 -40 l-568 0 ZM764 40 q-120 115 -120 120 l0 408 q115 120 120 120 q40 -35 40 -40 l0 -568 q-35 -40 -40 -40 ZM40 44 q-40 35 -40 40 l0 568 q35 40 40 40 q120 -115 120 -120 l0 -408 q-115 -120 -120 -120 ZM40 732 q-40 35 -40 40 l0 568 q35 40 40 40 q120 -115 120 -120 l0 -408 q-115 -120 -120 -120 ZM764 736 q-120 115 -120 120 l0 408 q115 120 120 120 q40 -35 40 -40 l0 -568 q-35 -40 -40 -40 ZM196 1268 q-120 115 -120 120 q35 40 40 40 l568 0 q40 -35 40 -40 q-115 -120 -120 -120 l-408 0 Z"></path></symbol><symbol id="one" viewBox="0 -270 2048 2048"><path d="M384 0 q-40 35 -40 40 l0 616 q35 40 40 40 q120 -115 120 -120 l0 -456 q-115 -120 -120 -120 ZM464 732 q-120 115 -120 120 l0 456 q115 120 120 120 q40 -35 40 -40 l0 -616 q-35 -40 -40 -40 Z"></path></symbol><symbol id="two" viewBox="0 -270 2048 2048"><path d="M116 0 q-40 35 -40 40 q115 120 120 120 l408 0 q120 -115 120 -120 q-35 -40 -40 -40 l-568 0 ZM764 44 q-120 115 -120 120 l0 408 q115 120 120 120 q40 -35 40 -40 l0 -568 q-35 -40 -40 -40 ZM160 636 q-80 75 -80 80 l0 4 q75 80 80 80 l472 0 q80 -75 80 -80 l0 -4 q-75 -80 -80 -80 l-472 0 ZM40 736 q-40 35 -40 40 l0 568 q35 40 40 40 q120 -115 120 -120 l0 -408 q-115 -120 -120 -120 ZM200 1268 q-120 115 -120 120 q35 40 40 40 l568 0 q40 -35 40 -40 q-115 -120 -120 -120 l-408 0 Z"></path></symbol><symbol id="three" viewBox="0 -270 2048 2048"><path d="M40 0 q-40 35 -40 40 q115 120 120 120 l408 0 q120 -115 120 -120 q-35 -40 -40 -40 l-568 0 ZM688 44 q-120 115 -120 120 l0 408 q115 120 120 120 q40 -35 40 -40 l0 -568 q-35 -40 -40 -40 ZM96 628 q-80 75 -80 80 l0 4 q75 80 80 80 l472 0 q80 -75 80 -80 l0 -4 q-75 -80 -80 -80 l-472 0 ZM688 732 q-120 115 -120 120 l0 408 q115 120 120 120 q40 -35 40 -40 l0 -568 q-35 -40 -40 -40 ZM124 1268 q-120 115 -120 120 q35 40 40 40 l568 0 q40 -35 40 -40 q-115 -120 -120 -120 l-408 0 Z"></path></symbol><symbol id="four" viewBox="0 -270 2048 2048"><path d="M40 0 q-40 35 -40 40 l0 616 q35 40 40 40 q120 -115 120 -120 l0 -456 q-115 -120 -120 -120 ZM764 0 q-120 115 -120 120 l0 456 q115 120 120 120 q40 -35 40 -40 l0 -616 q-35 -40 -40 -40 ZM172 636 q-80 75 -80 80 l0 4 q75 80 80 80 l472 0 q80 -75 80 -80 l0 -4 q-75 -80 -80 -80 l-472 0 ZM764 780 q-120 115 -120 120 l0 408 q115 120 120 120 q40 -35 40 -40 l0 -568 q-35 -40 -40 -40 Z"></path></symbol><symbol id="five" viewBox="0 -270 2048 2048"><path d="M120 0 q-40 35 -40 40 q115 120 120 120 l408 0 q120 -115 120 -120 q-35 -40 -40 -40 l-568 0 ZM40 44 q-40 35 -40 40 l0 568 q35 40 40 40 q120 -115 120 -120 l0 -408 q-115 -120 -120 -120 ZM160 628 q-80 75 -80 80 l0 4 q75 80 80 80 l472 0 q80 -75 80 -80 l0 -4 q-75 -80 -80 -80 l-472 0 ZM764 736 q-120 115 -120 120 l0 408 q115 120 120 120 q40 -35 40 -40 l0 -568 q-35 -40 -40 -40 ZM196 1268 q-120 115 -120 120 q35 40 40 40 l568 0 q40 -35 40 -40 q-115 -120 -120 -120 l-408 0 Z"></path></symbol><symbol id="six" viewBox="0 -270 2048 2048"><path d="M120 0 q-40 35 -40 40 q115 120 120 120 l408 0 q120 -115 120 -120 q-35 -40 -40 -40 l-568 0 ZM40 44 q-40 35 -40 40 l0 568 q35 40 40 40 q120 -115 120 -120 l0 -408 q-115 -120 -120 -120 ZM160 628 q-80 75 -80 80 l0 4 q75 80 80 80 l472 0 q80 -75 80 -80 l0 -4 q-75 -80 -80 -80 l-472 0 ZM40 732 q-40 35 -40 40 l0 568 q35 40 40 40 q120 -115 120 -120 l0 -408 q-115 -120 -120 -120 ZM764 736 q-120 115 -120 120 l0 408 q115 120 120 120 q40 -35 40 -40 l0 -568 q-35 -40 -40 -40 ZM196 1268 q-120 115 -120 120 q35 40 40 40 l568 0 q40 -35 40 -40 q-115 -120 -120 -120 l-408 0 Z"></path></symbol><symbol id="seven" viewBox="0 -270 2048 2048"><path d="M40 0 q-40 35 -40 40 q115 120 120 120 l408 0 q120 -115 120 -120 q-35 -40 -40 -40 l-568 0 ZM684 40 q-120 115 -120 120 l0 408 q115 120 120 120 q40 -35 40 -40 l0 -568 q-35 -40 -40 -40 ZM684 732 q-120 115 -120 120 l0 456 q115 120 120 120 q40 -35 40 -40 l0 -616 q-35 -40 -40 -40 Z"></path></symbol><symbol id="eight" viewBox="0 -270 2048 2048"><path d="M120 0 q-40 35 -40 40 q115 120 120 120 l408 0 q120 -115 120 -120 q-35 -40 -40 -40 l-568 0 ZM764 40 q-120 115 -120 120 l0 408 q115 120 120 120 q40 -35 40 -40 l0 -568 q-35 -40 -40 -40 ZM40 44 q-40 35 -40 40 l0 568 q35 40 40 40 q120 -115 120 -120 l0 -408 q-115 -120 -120 -120 ZM160 628 q-80 75 -80 80 l0 4 q75 80 80 80 l472 0 q80 -75 80 -80 l0 -4 q-75 -80 -80 -80 l-472 0 ZM40 732 q-40 35 -40 40 l0 568 q35 40 40 40 q120 -115 120 -120 l0 -408 q-115 -120 -120 -120 ZM764 736 q-120 115 -120 120 l0 408 q115 120 120 120 q40 -35 40 -40 l0 -568 q-35 -40 -40 -40 ZM196 1268 q-120 115 -120 120 q35 40 40 40 l568 0 q40 -35 40 -40 q-115 -120 -120 -120 l-408 0 Z"></path></symbol><symbol id="nine" viewBox="0 -270 2048 2048"><path d="M120 0 q-40 35 -40 40 q115 120 120 120 l408 0 q120 -115 120 -120 q-35 -40 -40 -40 l-568 0 ZM40 44 q-40 35 -40 40 l0 568 q35 40 40 40 q120 -115 120 -120 l0 -408 q-115 -120 -120 -120 ZM764 48 q-120 115 -120 120 l0 408 q115 120 120 120 q40 -35 40 -40 l0 -568 q-35 -40 -40 -40 ZM172 636 q-80 75 -80 80 l0 4 q75 80 80 80 l472 0 q80 -75 80 -80 l0 -4 q-75 -80 -80 -80 l-472 0 ZM764 736 q-120 115 -120 120 l0 408 q115 120 120 120 q40 -35 40 -40 l0 -568 q-35 -40 -40 -40 ZM196 1268 q-120 115 -120 120 q35 40 40 40 l568 0 q40 -35 40 -40 q-115 -120 -120 -120 l-408 0 Z"></path></symbol><symbol id="colon" viewBox="0 -270 2048 2048"><path d="M6 1100 q90 96 96 96 l8 0 q96 -90 96 -96 l0 -8 q-90 -96 -96 -96 l-8 0 q-96 90 -96 96 l0 8 ZM10 100 q90 96 96 96 l8 0 q96 -90 96 -96 l0 -8 q-90 -96 -96 -96 l-8 0 q-96 90 -96 96 l0 8 Z"></path></symbol><symbol id="semicolon" viewBox="0 -270 2048 2048"><path d="M216 897 q-90 -96 -96 -96 l-8 0 q-96 90 -96 96 l0 8 q20 291 26 291 l8 0 q166 -285 166 -291 l0 -8 ZM10 -95 q90 96 96 96 l8 0 q96 -90 96 -96 l0 -8 q-90 -96 -96 -96 l-8 0 q-96 90 -96 96 l0 8 Z"></path></symbol><symbol id="less" viewBox="0 -270 2048 2048"><path d="M11 609 q14 8 164 44 q352 -208 356 -216 q28 -114 36 -160 q-29 -16 -56 -16 q-473 282 -492 304 q0 16 -8 44 ZM11 773 q0 58 68 84 q420 260 436 260 l4 0 q48 0 48 -20 q-34 -160 -44 -160 l-344 -208 q-168 35 -168 44 Z"></path></symbol><symbol id="equal" viewBox="0 -270 2048 2048"><path d="M89 446 q-80 75 -80 80 l0 4 q75 80 80 80 l472 0 q80 -75 80 -80 l0 -4 q-75 -80 -80 -80 l-472 0 ZM89 814 q-80 75 -80 80 l0 4 q71 76 76 76 l480 0 q76 -71 76 -76 l0 -4 q-75 -80 -80 -80 l-472 0 Z"></path></symbol><symbol id="greater" viewBox="0 -270 2048 2048"><path d="M567 609 q-8 -28 -8 -44 q-19 -22 -492 -304 q-27 0 -56 16 q8 46 36 160 q4 8 356 216 q150 -36 164 -44 ZM567 773 q0 -9 -168 -44 l-344 208 q-10 0 -44 160 q0 20 48 20 l4 0 q16 0 436 -260 q68 -26 68 -84 Z"></path></symbol><symbol id="question" viewBox="0 -270 2048 2048"><path d="M40 0 q-40 35 -40 40 q115 120 120 120 l408 0 q120 -115 120 -120 q-35 -40 -40 -40 l-568 0 ZM688 44 q-120 115 -120 120 l0 408 q115 120 120 120 q40 -35 40 -40 l0 -568 q-35 -40 -40 -40 ZM96 628 q-80 75 -80 80 l0 4 q75 80 80 80 l472 0 q80 -75 80 -80 l0 -4 q-75 -80 -80 -80 l-472 0 ZM80 864 q-80 75 -80 80 l0 208 q75 80 80 80 q84 -79 84 -84 l0 -200 q-79 -84 -84 -84 ZM76 1272 q-76 71 -76 76 l0 4 q71 76 76 76 l4 0 q76 -71 76 -76 l0 -4 q-71 -76 -76 -76 l-4 0 Z"></path></symbol><symbol id="at" viewBox="0 -270 2048 2048"><path d="M120 0 q-40 35 -40 40 q115 120 120 120 l408 0 q120 -115 120 -120 q-35 -40 -40 -40 l-568 0 ZM764 40 q-120 115 -120 120 l0 408 q115 120 120 120 q40 -35 40 -40 l0 -568 q-35 -40 -40 -40 ZM40 44 q-40 35 -40 40 l0 568 q35 40 40 40 q120 -115 120 -120 l0 -408 q-115 -120 -120 -120 ZM296 416 q-24 18 -24 24 q63 68 68 68 l96 0 q2 0 72 -68 q-18 -24 -24 -24 l-188 0 ZM528 448 q-68 63 -68 68 l0 96 q63 68 68 68 l4 0 q20 -15 20 -20 l0 -192 q-15 -20 -20 -20 l-4 0 ZM296 680 q-24 18 -24 24 q63 68 68 68 l96 0 q35 -26 72 -68 q-18 -24 -24 -24 l-188 0 ZM528 720 q-68 63 -68 68 l0 96 q63 68 68 68 l4 0 q20 -15 20 -20 l0 -188 q-18 -24 -24 -24 ZM40 732 q-40 35 -40 40 l0 568 q35 40 40 40 q120 -115 120 -120 l0 -408 q-115 -120 -120 -120 ZM268 736 q-20 15 -20 20 l0 188 q18 24 24 24 q68 -63 68 -68 l0 -96 q-63 -68 -68 -68 l-4 0 ZM764 736 q-120 115 -120 120 l0 408 q115 120 120 120 q40 -35 40 -40 l0 -568 q-35 -40 -40 -40 ZM356 916 q-68 63 -68 68 q18 24 24 24 l188 0 q24 -18 24 -24 q-70 -68 -72 -68 l-96 0 ZM196 1268 q-120 115 -120 120 q35 40 40 40 l568 0 q40 -35 40 -40 q-115 -120 -120 -120 l-408 0 Z"></path></symbol><symbol id="A" viewBox="0 -270 2048 2048"><path d="M120 0 q-40 35 -40 40 q115 120 120 120 l408 0 q120 -115 120 -120 q-35 -40 -40 -40 l-568 0 ZM764 40 q-120 115 -120 120 l0 408 q115 120 120 120 q40 -35 40 -40 l0 -568 q-35 -40 -40 -40 ZM40 44 q-40 35 -40 40 l0 568 q35 40 40 40 q120 -115 120 -120 l0 -408 q-115 -120 -120 -120 ZM160 628 q-80 75 -80 80 l0 4 q75 80 80 80 l472 0 q80 -75 80 -80 l0 -4 q-75 -80 -80 -80 l-472 0 ZM40 732 q-40 35 -40 40 l0 616 q35 40 40 40 q120 -115 120 -120 l0 -456 q-115 -120 -120 -120 ZM764 732 q-120 115 -120 120 l0 456 q115 120 120 120 q40 -35 40 -40 l0 -616 q-35 -40 -40 -40 Z"></path></symbol><symbol id="B" viewBox="0 -270 2048 2048"><path d="M40 4 q15 20 160 156 l408 0 q120 -115 120 -120 q-35 -40 -40 -40 l-648 0 l0 4 ZM0 652 q35 40 40 40 q120 -115 120 -120 l0 -408 q-151 -156 -156 -156 l-4 0 l0 644 ZM764 40 q-120 115 -120 120 l0 408 q115 120 120 120 q40 -35 40 -40 l0 -568 q-35 -40 -40 -40 ZM160 628 q-80 75 -80 80 l0 4 q75 80 80 80 l472 0 q80 -75 80 -80 l0 -4 q-75 -80 -80 -80 l-472 0 ZM40 732 q-40 35 -40 40 l0 648 l4 0 q20 -15 156 -160 l0 -408 q-115 -120 -120 -120 ZM764 736 q-120 115 -120 120 l0 408 q115 120 120 120 q40 -35 40 -40 l0 -568 q-35 -40 -40 -40 ZM196 1268 q-21 16 -152 156 l0 4 l640 0 q40 -35 40 -40 q-115 -120 -120 -120 l-408 0 Z"></path></symbol><symbol id="C" viewBox="0 -270 2048 2048"><path d="M120 0 q-40 35 -40 40 q115 120 120 120 l408 0 q120 -115 120 -120 q-35 -40 -40 -40 l-568 0 ZM40 44 q-40 35 -40 40 l0 568 q35 40 40 40 q120 -115 120 -120 l0 -408 q-115 -120 -120 -120 ZM40 732 q-40 35 -40 40 l0 568 q35 40 40 40 q120 -115 120 -120 l0 -408 q-115 -120 -120 -120 ZM196 1268 q-120 115 -120 120 q35 40 40 40 l568 0 q40 -35 40 -40 q-115 -120 -120 -120 l-408 0 Z"></path></symbol><symbol id="D" viewBox="0 -270 2048 2048"><path d="M40 4 q15 20 160 156 l408 0 q120 -115 120 -120 q-35 -40 -40 -40 l-648 0 l0 4 ZM0 652 q35 40 40 40 q120 -115 120 -120 l0 -408 q-151 -156 -156 -156 l-4 0 l0 644 ZM764 40 q-120 115 -120 120 l0 408 q115 120 120 120 q40 -35 40 -40 l0 -568 q-35 -40 -40 -40 ZM40 732 q-40 35 -40 40 l0 648 l4 0 q20 -15 156 -160 l0 -408 q-115 -120 -120 -120 ZM764 736 q-120 115 -120 120 l0 408 q115 120 120 120 q40 -35 40 -40 l0 -568 q-35 -40 -40 -40 ZM196 1268 q-21 16 -152 156 l0 4 l640 0 q40 -35 40 -40 q-115 -120 -120 -120 l-408 0 Z"></path></symbol><symbol id="E" viewBox="0 -270 2048 2048"><path d="M120 0 q-40 35 -40 40 q115 120 120 120 l408 0 q120 -115 120 -120 q-35 -40 -40 -40 l-568 0 ZM40 44 q-40 35 -40 40 l0 568 q35 40 40 40 q120 -115 120 -120 l0 -408 q-115 -120 -120 -120 ZM160 628 q-80 75 -80 80 l0 4 q75 80 80 80 l472 0 q80 -75 80 -80 l0 -4 q-75 -80 -80 -80 l-472 0 ZM40 732 q-40 35 -40 40 l0 568 q35 40 40 40 q120 -115 120 -120 l0 -408 q-115 -120 -120 -120 ZM196 1268 q-120 115 -120 120 q35 40 40 40 l568 0 q40 -35 40 -40 q-115 -120 -120 -120 l-408 0 Z"></path></symbol><symbol id="F" viewBox="0 -270 2048 2048"><path d="M120 0 q-40 35 -40 40 q115 120 120 120 l408 0 q120 -115 120 -120 q-35 -40 -40 -40 l-568 0 ZM40 44 q-40 35 -40 40 l0 568 q35 40 40 40 q120 -115 120 -120 l0 -408 q-115 -120 -120 -120 ZM160 628 q-80 75 -80 80 l0 4 q75 80 80 80 l472 0 q80 -75 80 -80 l0 -4 q-75 -80 -80 -80 l-472 0 ZM40 732 q-40 35 -40 40 l0 616 q35 40 40 40 q120 -115 120 -120 l0 -456 q-115 -120 -120 -120 Z"></path></symbol><symbol id="G" viewBox="0 -270 2048 2048"><path d="M120 0 q-40 35 -40 40 q115 120 120 120 l408 0 q120 -115 120 -120 q-35 -40 -40 -40 l-568 0 ZM40 44 q-40 35 -40 40 l0 568 q35 40 40 40 q120 -115 120 -120 l0 -408 q-115 -120 -120 -120 ZM428 628 q-80 75 -80 80 l0 4 q75 80 80 80 l204 0 q80 -75 80 -80 l0 -4 q-75 -80 -80 -80 l-204 0 ZM40 732 q-40 35 -40 40 l0 568 q35 40 40 40 q120 -115 120 -120 l0 -408 q-115 -120 -120 -120 ZM764 736 q-120 115 -120 120 l0 408 q115 120 120 120 q40 -35 40 -40 l0 -568 q-35 -40 -40 -40 ZM196 1268 q-120 115 -120 120 q35 40 40 40 l568 0 q40 -35 40 -40 q-115 -120 -120 -120 l-408 0 Z"></path></symbol><symbol id="H" viewBox="0 -270 2048 2048"><path d="M40 0 q-40 35 -40 40 l0 616 q35 40 40 40 q120 -115 120 -120 l0 -456 q-115 -120 -120 -120 ZM764 0 q-120 115 -120 120 l0 456 q115 120 120 120 q40 -35 40 -40 l0 -616 q-35 -40 -40 -40 ZM160 628 q-80 75 -80 80 l0 4 q75 80 80 80 l472 0 q80 -75 80 -80 l0 -4 q-75 -80 -80 -80 l-472 0 ZM40 732 q-40 35 -40 40 l0 616 q35 40 40 40 q120 -115 120 -120 l0 -456 q-115 -120 -120 -120 ZM764 732 q-120 115 -120 120 l0 456 q115 120 120 120 q40 -35 40 -40 l0 -616 q-35 -40 -40 -40 Z"></path></symbol><symbol id="I" viewBox="0 -270 2048 2048"><path d="M40 0 q-40 35 -40 40 l0 616 q35 40 40 40 q120 -115 120 -120 l0 -456 q-115 -120 -120 -120 ZM120 732 q-120 115 -120 120 l0 456 q115 120 120 120 q40 -35 40 -40 l0 -616 q-35 -40 -40 -40 Z"></path></symbol><symbol id="J" viewBox="0 -270 2048 2048"><path d="M764 0 q-120 115 -120 120 l0 456 q115 120 120 120 q40 -35 40 -40 l0 -616 q-35 -40 -40 -40 ZM40 732 q-40 35 -40 40 l0 568 q35 40 40 40 q120 -115 120 -120 l0 -408 q-115 -120 -120 -120 ZM764 736 q-120 115 -120 120 l0 408 q115 120 120 120 q40 -35 40 -40 l0 -568 q-35 -40 -40 -40 ZM196 1268 q-120 115 -120 120 q35 40 40 40 l568 0 q40 -35 40 -40 q-115 -120 -120 -120 l-408 0 Z"></path></symbol><symbol id="K" viewBox="0 -270 2048 2048"><path d="M40 0 q-40 35 -40 40 l0 616 q35 40 40 40 q120 -115 120 -120 l0 -456 q-115 -120 -120 -120 ZM292 520 l0 48 q0 8 8 8 l160 0 l344 -336 l0 -48 q0 -7 -8 -8 l-160 0 l-344 336 ZM160 628 q-80 75 -80 80 l0 4 q75 80 80 80 l472 0 q80 -75 80 -80 l0 -4 q-75 -80 -80 -80 l-472 0 ZM40 732 q-40 35 -40 40 l0 616 q35 40 40 40 q120 -115 120 -120 l0 -456 q-115 -120 -120 -120 ZM764 732 q-120 115 -120 120 l0 456 q115 120 120 120 q40 -35 40 -40 l0 -616 q-35 -40 -40 -40 Z"></path></symbol><symbol id="L" viewBox="0 -270 2048 2048"><path d="M0 648 q35 40 40 40 q120 -115 120 -120 l0 -408 q-150 -160 -156 -160 l-4 0 l0 648 ZM40 728 q-40 35 -40 40 l0 568 q35 40 40 40 q120 -115 120 -120 l0 -408 q-115 -120 -120 -120 ZM196 1264 q-120 115 -120 120 q35 40 40 40 l568 0 q40 -35 40 -40 q-115 -120 -120 -120 l-408 0 Z"></path></symbol><symbol id="M" viewBox="0 -270 2048 2048"><path d="M120 0 q-40 35 -40 40 q115 120 120 120 l408 0 q120 -115 120 -120 q-35 -40 -40 -40 l-568 0 ZM844 0 q-40 35 -40 40 q115 120 120 120 l408 0 q120 -115 120 -120 q-35 -40 -40 -40 l-568 0 ZM764 40 q-120 115 -120 120 l0 408 q115 120 120 120 q40 -35 40 -40 l0 -568 q-35 -40 -40 -40 ZM1488 40 q-120 115 -120 120 l0 408 q115 120 120 120 q40 -35 40 -40 l0 -568 q-35 -40 -40 -40 ZM40 44 q-40 35 -40 40 l0 568 q35 40 40 40 q120 -115 120 -120 l0 -408 q-115 -120 -120 -120 ZM120 732 q-120 115 -120 120 l0 456 q115 120 120 120 q40 -35 40 -40 l0 -616 q-35 -40 -40 -40 ZM764 732 q-120 115 -120 120 l0 456 q115 120 120 120 q40 -35 40 -40 l0 -616 q-35 -40 -40 -40 ZM1408 732 q-40 35 -40 40 l0 616 q35 40 40 40 q120 -115 120 -120 l0 -456 q-115 -120 -120 -120 Z"></path></symbol><symbol id="N" viewBox="0 -270 2048 2048"><path d="M40 0 q-40 35 -40 40 l0 616 q35 40 40 40 q120 -115 120 -120 l0 -456 q-115 -120 -120 -120 ZM764 0 q-120 115 -120 120 l0 456 q115 120 120 120 q40 -35 40 -40 l0 -616 q-35 -40 -40 -40 ZM204 164 q-7 0 -8 8 l0 160 q165 160 336 340 l8 -4 q0 4 4 4 l48 0 q8 0 8 -8 l0 -160 q-73 -80 -84 -80 q-187 -196 -264 -260 l-48 0 ZM40 732 q-40 35 -40 40 l0 616 q35 40 40 40 q120 -115 120 -120 l0 -456 q-115 -120 -120 -120 ZM764 732 q-120 115 -120 120 l0 456 q115 120 120 120 q40 -35 40 -40 l0 -616 q-35 -40 -40 -40 Z"></path></symbol><symbol id="O" viewBox="0 -270 2048 2048"><path d="M120 0 q-40 35 -40 40 q115 120 120 120 l408 0 q120 -115 120 -120 q-35 -40 -40 -40 l-568 0 ZM764 40 q-120 115 -120 120 l0 408 q115 120 120 120 q40 -35 40 -40 l0 -568 q-35 -40 -40 -40 ZM40 44 q-40 35 -40 40 l0 568 q35 40 40 40 q120 -115 120 -120 l0 -408 q-115 -120 -120 -120 ZM40 732 q-40 35 -40 40 l0 568 q35 40 40 40 q120 -115 120 -120 l0 -408 q-115 -120 -120 -120 ZM764 736 q-120 115 -120 120 l0 408 q115 120 120 120 q40 -35 40 -40 l0 -568 q-35 -40 -40 -40 ZM196 1268 q-120 115 -120 120 q35 40 40 40 l568 0 q40 -35 40 -40 q-115 -120 -120 -120 l-408 0 Z"></path></symbol><symbol id="P" viewBox="0 -270 2048 2048"><path d="M120 0 q-40 35 -40 40 q115 120 120 120 l408 0 q120 -115 120 -120 q-35 -40 -40 -40 l-568 0 ZM764 40 q-120 115 -120 120 l0 408 q115 120 120 120 q40 -35 40 -40 l0 -568 q-35 -40 -40 -40 ZM40 44 q-40 35 -40 40 l0 568 q35 40 40 40 q120 -115 120 -120 l0 -408 q-115 -120 -120 -120 ZM160 628 q-80 75 -80 80 l0 4 q75 80 80 80 l472 0 q80 -75 80 -80 l0 -4 q-75 -80 -80 -80 l-472 0 ZM40 732 q-40 35 -40 40 l0 616 q35 40 40 40 q120 -115 120 -120 l0 -456 q-115 -120 -120 -120 Z"></path></symbol><symbol id="Q" viewBox="0 -270 2048 2048"><path d="M120 -200 q-40 35 -40 40 q115 120 120 120 l408 0 q120 -115 120 -120 q-35 -40 -40 -40 l-568 0 ZM764 -160 q-120 115 -120 120 l0 408 q115 120 120 120 q40 -35 40 -40 l0 -568 q-35 -40 -40 -40 ZM40 -156 q-40 35 -40 40 l0 568 q35 40 40 40 q120 -115 120 -120 l0 -408 q-115 -120 -120 -120 ZM40 532 q-40 35 -40 40 l0 568 q35 40 40 40 q120 -115 120 -120 l0 -408 q-115 -120 -120 -120 ZM764 536 q-120 115 -120 120 l0 408 q115 120 120 120 q40 -35 40 -40 l0 -568 q-35 -40 -40 -40 ZM400 872 q-80 75 -80 80 l0 68 q0 8 8 8 l148 0 q8 0 8 -8 l0 -68 q-75 -80 -80 -80 l-4 0 ZM196 1068 q-120 115 -120 120 q35 40 40 40 l568 0 q40 -35 40 -40 q-115 -120 -120 -120 l-408 0 ZM328 1268 q-7 0 -8 8 l0 72 q75 80 80 80 l4 0 q80 -75 80 -80 l0 -72 q0 -7 -8 -8 l-148 0 Z"></path></symbol><symbol id="R" viewBox="0 -270 2048 2048"><path d="M120 0 q-40 35 -40 40 q115 120 120 120 l408 0 q120 -115 120 -120 q-35 -40 -40 -40 l-568 0 ZM764 40 q-120 115 -120 120 l0 408 q115 120 120 120 q40 -35 40 -40 l0 -568 q-35 -40 -40 -40 ZM40 44 q-40 35 -40 40 l0 568 q35 40 40 40 q120 -115 120 -120 l0 -408 q-115 -120 -120 -120 ZM160 628 q-80 75 -80 80 l0 4 q75 80 80 80 l472 0 q80 -75 80 -80 l0 -4 q-75 -80 -80 -80 l-472 0 ZM40 732 q-40 35 -40 40 l0 616 q35 40 40 40 q120 -115 120 -120 l0 -456 q-115 -120 -120 -120 ZM432 836 q64 151 184 492 q0 37 164 96 l4 0 q0 -8 20 -48 q-88 -250 -104 -284 q-60 -217 -144 -260 l-116 0 l-8 4 Z"></path></symbol><symbol id="S" viewBox="0 -270 2048 2048"><path d="M120 0 q-40 35 -40 40 q115 120 120 120 l408 0 q120 -115 120 -120 q-35 -40 -40 -40 l-568 0 ZM40 44 q-40 35 -40 40 l0 568 q35 40 40 40 q120 -115 120 -120 l0 -408 q-115 -120 -120 -120 ZM160 628 q-80 75 -80 80 l0 4 q75 80 80 80 l472 0 q80 -75 80 -80 l0 -4 q-75 -80 -80 -80 l-472 0 ZM764 736 q-120 115 -120 120 l0 408 q115 120 120 120 q40 -35 40 -40 l0 -568 q-35 -40 -40 -40 ZM196 1268 q-120 115 -120 120 q35 40 40 40 l568 0 q40 -35 40 -40 q-115 -120 -120 -120 l-408 0 Z"></path></symbol><symbol id="T" viewBox="0 -270 2048 2048"><path d="M40 0 q-40 35 -40 40 q115 120 120 120 l564 0 q120 -115 120 -120 q-35 -40 -40 -40 l-724 0 ZM388 232 q-40 35 -40 40 l0 484 q35 40 40 40 q120 -115 120 -120 l0 -324 q-115 -120 -120 -120 ZM468 868 q-120 115 -120 120 l0 320 q115 120 120 120 q40 -35 40 -40 l0 -480 q-35 -40 -40 -40 Z"></path></symbol><symbol id="U" viewBox="0 -270 2048 2048"><path d="M40 0 q-40 35 -40 40 l0 616 q35 40 40 40 q120 -115 120 -120 l0 -456 q-115 -120 -120 -120 ZM764 0 q-120 115 -120 120 l0 456 q115 120 120 120 q40 -35 40 -40 l0 -616 q-35 -40 -40 -40 ZM40 736 q-40 35 -40 40 l0 568 q35 40 40 40 q120 -115 120 -120 l0 -408 q-115 -120 -120 -120 ZM764 740 q-120 115 -120 120 l0 408 q115 120 120 120 q40 -35 40 -40 l0 -568 q-35 -40 -40 -40 ZM200 1268 q-120 115 -120 120 q35 40 40 40 l568 0 q40 -35 40 -40 q-115 -120 -120 -120 l-408 0 Z"></path></symbol><symbol id="V" viewBox="0 -270 2048 2048"><path d="M40 0 q-40 35 -40 40 l0 760 q35 40 40 40 q120 -115 120 -120 l0 -600 q-115 -120 -120 -120 ZM756 0 q-116 111 -116 116 l0 588 q115 120 120 120 q40 -35 40 -40 l0 -748 q-31 -36 -36 -36 l-8 0 ZM16 872 q-8 14 -16 56 q249 405 280 448 q15 44 68 44 l4 0 q9 0 40 -168 q-193 -305 -208 -336 q-14 -8 -168 -44 ZM788 884 q-27 0 -164 36 q-8 4 -216 344 q30 146 40 164 q8 0 48 -8 l304 -476 q0 -20 -12 -60 Z"></path></symbol><symbol id="W" viewBox="0 -270 2048 2048"><path d="M40 0 q-40 35 -40 40 l0 760 q35 40 40 40 q120 -115 120 -120 l0 -600 q-115 -120 -120 -120 ZM760 0 q-120 115 -120 120 l0 680 q35 40 40 40 q120 -115 120 -120 l0 -680 q-35 -40 -40 -40 ZM1400 0 q-120 115 -120 120 l0 600 q115 120 120 120 q40 -35 40 -40 l0 -760 q-35 -40 -40 -40 ZM16 888 q-8 14 -16 56 q249 405 280 448 q15 44 68 44 l4 0 q9 0 40 -168 q-193 -305 -208 -336 q-14 -8 -168 -44 ZM788 900 q-27 0 -164 36 q-8 4 -216 344 q30 146 40 164 q57 0 72 -40 q153 -233 272 -488 l0 -8 l-4 -8 ZM1428 900 q-27 0 -164 36 q-8 4 -216 344 q30 146 40 164 q8 0 48 -8 l304 -476 q0 -20 -12 -60 ZM836 960 q-8 4 -88 160 l172 272 q15 44 68 44 l4 0 q9 0 40 -168 q-186 -299 -196 -308 Z"></path></symbol><symbol id="X" viewBox="0 -270 2048 2048"><path d="M16 0 q-16 29 -16 60 l280 452 q0 28 68 40 q8 -12 40 -168 l-200 -328 q0 -18 -172 -56 ZM628 40 q-6 2 -212 344 q33 168 40 168 q37 -12 48 -12 q16 -16 300 -484 q-8 -42 -16 -56 l-160 40 ZM200 636 q-120 115 -120 120 q35 40 40 40 l480 0 q120 -115 120 -120 q-35 -40 -40 -40 l-480 0 ZM300 892 q-29 35 -300 480 q0 15 12 56 q26 0 160 -36 q20 -24 216 -340 q-32 -163 -40 -172 l-48 12 ZM456 880 q-8 7 -40 164 q29 57 196 324 q0 30 168 60 q17 0 24 -52 q-149 -249 -276 -448 q0 -34 -72 -48 Z"></path></symbol><symbol id="Y" viewBox="0 -270 2048 2048"><path d="M40 0 q-40 35 -40 40 l0 328 q35 40 40 40 q120 -115 120 -120 l0 -168 q-115 -120 -120 -120 ZM760 0 q-120 115 -120 120 l0 168 q115 120 120 120 q40 -35 40 -40 l0 -328 q-35 -40 -40 -40 ZM16 440 q-8 14 -16 56 q249 405 280 448 q15 44 68 44 l4 0 q9 0 40 -168 q-193 -305 -208 -336 q-14 -8 -168 -44 ZM788 452 q-27 0 -164 36 q-8 4 -216 344 q30 146 40 164 q8 0 48 -8 l304 -476 q0 -20 -12 -60 ZM424 1020 q-120 115 -120 120 l0 168 q115 120 120 120 q40 -35 40 -40 l0 -328 q-35 -40 -40 -40 Z"></path></symbol><symbol id="Z" viewBox="0 -270 2048 2048"><path d="M40 0 q-40 35 -40 40 q115 120 120 120 l408 0 q120 -115 120 -120 q-35 -40 -40 -40 l-568 0 ZM692 124 q-5 0 -52 12 q-225 389 -240 408 q1 41 44 172 q5 0 52 -12 q235 -405 240 -408 q0 -37 -44 -172 ZM356 720 q-5 0 -52 12 q-225 389 -240 408 q1 41 44 172 l52 -12 q235 -405 240 -408 q0 -37 -44 -172 ZM264 1268 q-120 115 -120 120 q35 40 40 40 l568 0 q40 -35 40 -40 q-115 -120 -120 -120 l-408 0 Z"></path></symbol><symbol id="bracketleft" viewBox="0 -270 2048 2048"><path d="M380 0 l-208 0 q-5 0 -80 80 q0 5 84 84 l200 0 q5 0 84 -84 q0 -5 -80 -80 ZM40 108 q-5 0 -40 40 l0 568 q0 5 40 40 q5 0 124 -124 l0 -392 q0 -23 -124 -132 ZM40 808 q-27 14 -40 32 l0 432 q13 18 40 32 q98 -70 120 -92 l0 -312 q-22 -22 -120 -92 ZM376 1248 l-200 0 q-5 0 -84 84 q0 5 80 80 l208 0 q5 0 80 -80 q0 -5 -84 -84 Z"></path></symbol><symbol id="backslash" viewBox="0 -270 2048 2048"><path d="M12 0 q-12 19 -12 52 l0 4 q0 16 224 420 q13 0 156 48 q16 -30 16 -60 q-207 -388 -228 -416 q-147 -48 -156 -48 ZM256 500 q-16 30 -16 60 q207 388 228 416 q147 48 156 48 q16 -36 16 -56 q-205 -388 -232 -420 q-7 0 -152 -48 ZM500 1008 q-9 13 -16 56 q182 322 208 352 q37 12 48 12 q8 -13 48 -160 q-116 -217 -136 -220 q-145 -40 -152 -40 Z"></path></symbol><symbol id="bracketright" viewBox="0 -270 2048 2048"><path d="M80 0 q-80 75 -80 80 q79 84 84 84 l200 0 q84 -79 84 -84 q-75 -80 -80 -80 l-208 0 ZM420 108 q-124 109 -124 132 l0 392 q119 124 124 124 q40 -35 40 -40 l0 -568 q-35 -40 -40 -40 ZM420 808 q-98 70 -120 92 l0 312 q22 22 120 92 q27 -14 40 -32 l0 -432 q-13 -18 -40 -32 ZM84 1248 q-84 79 -84 84 q75 80 80 80 l208 0 q80 -75 80 -80 q-79 -84 -84 -84 l-200 0 Z"></path></symbol><symbol id="asciicircum" viewBox="0 -270 2048 2048"><path d="M564 1012 q-8 14 -44 164 q208 352 216 356 q114 28 160 36 q16 -29 16 -56 q-282 -473 -304 -492 q-16 0 -44 -8 ZM400 1012 q-58 0 -84 68 q-260 420 -260 436 l0 4 q0 48 20 48 q160 -34 160 -44 l208 -344 q-35 -168 -44 -168 Z"></path></symbol><symbol id="underscore" viewBox="0 -270 2048 2048"><path d="M89 0 q-80 75 -80 80 l0 4 q75 80 80 80 l472 0 q80 -75 80 -80 l0 -4 q-75 -80 -80 -80 l-472 0 Z"></path></symbol><symbol id="grave" viewBox="0 -270 2048 2048"><path d="M442 1185 q-9 13 -16 56 q155 274 172 288 q22 4 36 4 l8 0 q14 0 48 -160 q-79 -152 -104 -152 l-144 -36 Z"></path></symbol><symbol id="a" viewBox="0 -270 2048 2048"><path d="M120 0 q-40 35 -40 40 q115 120 120 120 l408 0 q120 -115 120 -120 q-35 -40 -40 -40 l-568 0 ZM764 40 q-120 115 -120 120 l0 408 q115 120 120 120 q40 -35 40 -40 l0 -568 q-35 -40 -40 -40 ZM40 44 q-40 35 -40 40 l0 568 q35 40 40 40 q120 -115 120 -120 l0 -408 q-115 -120 -120 -120 ZM160 628 q-80 75 -80 80 l0 4 q75 80 80 80 l472 0 q80 -75 80 -80 l0 -4 q-75 -80 -80 -80 l-472 0 ZM40 732 q-40 35 -40 40 l0 616 q35 40 40 40 q120 -115 120 -120 l0 -456 q-115 -120 -120 -120 ZM764 732 q-120 115 -120 120 l0 456 q115 120 120 120 q40 -35 40 -40 l0 -616 q-35 -40 -40 -40 Z"></path></symbol><symbol id="b" viewBox="0 -270 2048 2048"><path d="M40 4 q15 20 160 156 l408 0 q120 -115 120 -120 q-35 -40 -40 -40 l-648 0 l0 4 ZM0 652 q35 40 40 40 q120 -115 120 -120 l0 -408 q-151 -156 -156 -156 l-4 0 l0 644 ZM764 40 q-120 115 -120 120 l0 408 q115 120 120 120 q40 -35 40 -40 l0 -568 q-35 -40 -40 -40 ZM160 628 q-80 75 -80 80 l0 4 q75 80 80 80 l472 0 q80 -75 80 -80 l0 -4 q-75 -80 -80 -80 l-472 0 ZM40 732 q-40 35 -40 40 l0 648 l4 0 q20 -15 156 -160 l0 -408 q-115 -120 -120 -120 ZM764 736 q-120 115 -120 120 l0 408 q115 120 120 120 q40 -35 40 -40 l0 -568 q-35 -40 -40 -40 ZM196 1268 q-21 16 -152 156 l0 4 l640 0 q40 -35 40 -40 q-115 -120 -120 -120 l-408 0 Z"></path></symbol><symbol id="c" viewBox="0 -270 2048 2048"><path d="M120 0 q-40 35 -40 40 q115 120 120 120 l408 0 q120 -115 120 -120 q-35 -40 -40 -40 l-568 0 ZM40 44 q-40 35 -40 40 l0 568 q35 40 40 40 q120 -115 120 -120 l0 -408 q-115 -120 -120 -120 ZM40 732 q-40 35 -40 40 l0 568 q35 40 40 40 q120 -115 120 -120 l0 -408 q-115 -120 -120 -120 ZM196 1268 q-120 115 -120 120 q35 40 40 40 l568 0 q40 -35 40 -40 q-115 -120 -120 -120 l-408 0 Z"></path></symbol><symbol id="d" viewBox="0 -270 2048 2048"><path d="M40 4 q15 20 160 156 l408 0 q120 -115 120 -120 q-35 -40 -40 -40 l-648 0 l0 4 ZM0 652 q35 40 40 40 q120 -115 120 -120 l0 -408 q-151 -156 -156 -156 l-4 0 l0 644 ZM764 40 q-120 115 -120 120 l0 408 q115 120 120 120 q40 -35 40 -40 l0 -568 q-35 -40 -40 -40 ZM40 732 q-40 35 -40 40 l0 648 l4 0 q20 -15 156 -160 l0 -408 q-115 -120 -120 -120 ZM764 736 q-120 115 -120 120 l0 408 q115 120 120 120 q40 -35 40 -40 l0 -568 q-35 -40 -40 -40 ZM196 1268 q-21 16 -152 156 l0 4 l640 0 q40 -35 40 -40 q-115 -120 -120 -120 l-408 0 Z"></path></symbol><symbol id="e" viewBox="0 -270 2048 2048"><path d="M120 0 q-40 35 -40 40 q115 120 120 120 l408 0 q120 -115 120 -120 q-35 -40 -40 -40 l-568 0 ZM40 44 q-40 35 -40 40 l0 568 q35 40 40 40 q120 -115 120 -120 l0 -408 q-115 -120 -120 -120 ZM160 628 q-80 75 -80 80 l0 4 q75 80 80 80 l472 0 q80 -75 80 -80 l0 -4 q-75 -80 -80 -80 l-472 0 ZM40 732 q-40 35 -40 40 l0 568 q35 40 40 40 q120 -115 120 -120 l0 -408 q-115 -120 -120 -120 ZM196 1268 q-120 115 -120 120 q35 40 40 40 l568 0 q40 -35 40 -40 q-115 -120 -120 -120 l-408 0 Z"></path></symbol><symbol id="f" viewBox="0 -270 2048 2048"><path d="M120 0 q-40 35 -40 40 q115 120 120 120 l408 0 q120 -115 120 -120 q-35 -40 -40 -40 l-568 0 ZM40 44 q-40 35 -40 40 l0 568 q35 40 40 40 q120 -115 120 -120 l0 -408 q-115 -120 -120 -120 ZM160 628 q-80 75 -80 80 l0 4 q75 80 80 80 l472 0 q80 -75 80 -80 l0 -4 q-75 -80 -80 -80 l-472 0 ZM40 732 q-40 35 -40 40 l0 616 q35 40 40 40 q120 -115 120 -120 l0 -456 q-115 -120 -120 -120 Z"></path></symbol><symbol id="g" viewBox="0 -270 2048 2048"><path d="M120 0 q-40 35 -40 40 q115 120 120 120 l408 0 q120 -115 120 -120 q-35 -40 -40 -40 l-568 0 ZM40 44 q-40 35 -40 40 l0 568 q35 40 40 40 q120 -115 120 -120 l0 -408 q-115 -120 -120 -120 ZM428 628 q-80 75 -80 80 l0 4 q75 80 80 80 l204 0 q80 -75 80 -80 l0 -4 q-75 -80 -80 -80 l-204 0 ZM40 732 q-40 35 -40 40 l0 568 q35 40 40 40 q120 -115 120 -120 l0 -408 q-115 -120 -120 -120 ZM764 736 q-120 115 -120 120 l0 408 q115 120 120 120 q40 -35 40 -40 l0 -568 q-35 -40 -40 -40 ZM196 1268 q-120 115 -120 120 q35 40 40 40 l568 0 q40 -35 40 -40 q-115 -120 -120 -120 l-408 0 Z"></path></symbol><symbol id="h" viewBox="0 -270 2048 2048"><path d="M40 0 q-40 35 -40 40 l0 616 q35 40 40 40 q120 -115 120 -120 l0 -456 q-115 -120 -120 -120 ZM764 0 q-120 115 -120 120 l0 456 q115 120 120 120 q40 -35 40 -40 l0 -616 q-35 -40 -40 -40 ZM160 628 q-80 75 -80 80 l0 4 q75 80 80 80 l472 0 q80 -75 80 -80 l0 -4 q-75 -80 -80 -80 l-472 0 ZM40 732 q-40 35 -40 40 l0 616 q35 40 40 40 q120 -115 120 -120 l0 -456 q-115 -120 -120 -120 ZM764 732 q-120 115 -120 120 l0 456 q115 120 120 120 q40 -35 40 -40 l0 -616 q-35 -40 -40 -40 Z"></path></symbol><symbol id="i" viewBox="0 -270 2048 2048"><path d="M40 0 q-40 35 -40 40 l0 616 q35 40 40 40 q120 -115 120 -120 l0 -456 q-115 -120 -120 -120 ZM120 732 q-120 115 -120 120 l0 456 q115 120 120 120 q40 -35 40 -40 l0 -616 q-35 -40 -40 -40 Z"></path></symbol><symbol id="j" viewBox="0 -270 2048 2048"><path d="M764 0 q-120 115 -120 120 l0 456 q115 120 120 120 q40 -35 40 -40 l0 -616 q-35 -40 -40 -40 ZM40 732 q-40 35 -40 40 l0 568 q35 40 40 40 q120 -115 120 -120 l0 -408 q-115 -120 -120 -120 ZM764 736 q-120 115 -120 120 l0 408 q115 120 120 120 q40 -35 40 -40 l0 -568 q-35 -40 -40 -40 ZM196 1268 q-120 115 -120 120 q35 40 40 40 l568 0 q40 -35 40 -40 q-115 -120 -120 -120 l-408 0 Z"></path></symbol><symbol id="k" viewBox="0 -270 2048 2048"><path d="M40 0 q-40 35 -40 40 l0 616 q35 40 40 40 q120 -115 120 -120 l0 -456 q-115 -120 -120 -120 ZM292 520 l0 48 q0 8 8 8 l160 0 l344 -336 l0 -48 q0 -7 -8 -8 l-160 0 l-344 336 ZM160 628 q-80 75 -80 80 l0 4 q75 80 80 80 l472 0 q80 -75 80 -80 l0 -4 q-75 -80 -80 -80 l-472 0 ZM40 732 q-40 35 -40 40 l0 616 q35 40 40 40 q120 -115 120 -120 l0 -456 q-115 -120 -120 -120 ZM764 732 q-120 115 -120 120 l0 456 q115 120 120 120 q40 -35 40 -40 l0 -616 q-35 -40 -40 -40 Z"></path></symbol><symbol id="l" viewBox="0 -270 2048 2048"><path d="M0 648 q35 40 40 40 q120 -115 120 -120 l0 -408 q-150 -160 -156 -160 l-4 0 l0 648 ZM40 728 q-40 35 -40 40 l0 568 q35 40 40 40 q120 -115 120 -120 l0 -408 q-115 -120 -120 -120 ZM196 1264 q-120 115 -120 120 q35 40 40 40 l568 0 q40 -35 40 -40 q-115 -120 -120 -120 l-408 0 Z"></path></symbol><symbol id="m" viewBox="0 -270 2048 2048"><path d="M120 0 q-40 35 -40 40 q115 120 120 120 l408 0 q120 -115 120 -120 q-35 -40 -40 -40 l-568 0 ZM844 0 q-40 35 -40 40 q115 120 120 120 l408 0 q120 -115 120 -120 q-35 -40 -40 -40 l-568 0 ZM764 40 q-120 115 -120 120 l0 408 q115 120 120 120 q40 -35 40 -40 l0 -568 q-35 -40 -40 -40 ZM1488 40 q-120 115 -120 120 l0 408 q115 120 120 120 q40 -35 40 -40 l0 -568 q-35 -40 -40 -40 ZM40 44 q-40 35 -40 40 l0 568 q35 40 40 40 q120 -115 120 -120 l0 -408 q-115 -120 -120 -120 ZM120 732 q-120 115 -120 120 l0 456 q115 120 120 120 q40 -35 40 -40 l0 -616 q-35 -40 -40 -40 ZM764 732 q-120 115 -120 120 l0 456 q115 120 120 120 q40 -35 40 -40 l0 -616 q-35 -40 -40 -40 ZM1408 732 q-40 35 -40 40 l0 616 q35 40 40 40 q120 -115 120 -120 l0 -456 q-115 -120 -120 -120 Z"></path></symbol><symbol id="n" viewBox="0 -270 2048 2048"><path d="M40 0 q-40 35 -40 40 l0 616 q35 40 40 40 q120 -115 120 -120 l0 -456 q-115 -120 -120 -120 ZM764 0 q-120 115 -120 120 l0 456 q115 120 120 120 q40 -35 40 -40 l0 -616 q-35 -40 -40 -40 ZM204 164 q-7 0 -8 8 l0 160 q165 160 336 340 l8 -4 q0 4 4 4 l48 0 q8 0 8 -8 l0 -160 q-73 -80 -84 -80 q-187 -196 -264 -260 l-48 0 ZM40 732 q-40 35 -40 40 l0 616 q35 40 40 40 q120 -115 120 -120 l0 -456 q-115 -120 -120 -120 ZM764 732 q-120 115 -120 120 l0 456 q115 120 120 120 q40 -35 40 -40 l0 -616 q-35 -40 -40 -40 Z"></path></symbol><symbol id="o" viewBox="0 -270 2048 2048"><path d="M120 0 q-40 35 -40 40 q115 120 120 120 l408 0 q120 -115 120 -120 q-35 -40 -40 -40 l-568 0 ZM764 40 q-120 115 -120 120 l0 408 q115 120 120 120 q40 -35 40 -40 l0 -568 q-35 -40 -40 -40 ZM40 44 q-40 35 -40 40 l0 568 q35 40 40 40 q120 -115 120 -120 l0 -408 q-115 -120 -120 -120 ZM40 732 q-40 35 -40 40 l0 568 q35 40 40 40 q120 -115 120 -120 l0 -408 q-115 -120 -120 -120 ZM764 736 q-120 115 -120 120 l0 408 q115 120 120 120 q40 -35 40 -40 l0 -568 q-35 -40 -40 -40 ZM196 1268 q-120 115 -120 120 q35 40 40 40 l568 0 q40 -35 40 -40 q-115 -120 -120 -120 l-408 0 Z"></path></symbol><symbol id="p" viewBox="0 -270 2048 2048"><path d="M120 0 q-40 35 -40 40 q115 120 120 120 l408 0 q120 -115 120 -120 q-35 -40 -40 -40 l-568 0 ZM764 40 q-120 115 -120 120 l0 408 q115 120 120 120 q40 -35 40 -40 l0 -568 q-35 -40 -40 -40 ZM40 44 q-40 35 -40 40 l0 568 q35 40 40 40 q120 -115 120 -120 l0 -408 q-115 -120 -120 -120 ZM160 628 q-80 75 -80 80 l0 4 q75 80 80 80 l472 0 q80 -75 80 -80 l0 -4 q-75 -80 -80 -80 l-472 0 ZM40 732 q-40 35 -40 40 l0 616 q35 40 40 40 q120 -115 120 -120 l0 -456 q-115 -120 -120 -120 Z"></path></symbol><symbol id="q" viewBox="0 -270 2048 2048"><path d="M120 -200 q-40 35 -40 40 q115 120 120 120 l408 0 q120 -115 120 -120 q-35 -40 -40 -40 l-568 0 ZM764 -160 q-120 115 -120 120 l0 408 q115 120 120 120 q40 -35 40 -40 l0 -568 q-35 -40 -40 -40 ZM40 -156 q-40 35 -40 40 l0 568 q35 40 40 40 q120 -115 120 -120 l0 -408 q-115 -120 -120 -120 ZM40 532 q-40 35 -40 40 l0 568 q35 40 40 40 q120 -115 120 -120 l0 -408 q-115 -120 -120 -120 ZM764 536 q-120 115 -120 120 l0 408 q115 120 120 120 q40 -35 40 -40 l0 -568 q-35 -40 -40 -40 ZM400 872 q-80 75 -80 80 l0 68 q0 8 8 8 l148 0 q8 0 8 -8 l0 -68 q-75 -80 -80 -80 l-4 0 ZM196 1068 q-120 115 -120 120 q35 40 40 40 l568 0 q40 -35 40 -40 q-115 -120 -120 -120 l-408 0 ZM328 1268 q-7 0 -8 8 l0 72 q75 80 80 80 l4 0 q80 -75 80 -80 l0 -72 q0 -7 -8 -8 l-148 0 Z"></path></symbol><symbol id="r" viewBox="0 -270 2048 2048"><path d="M120 0 q-40 35 -40 40 q115 120 120 120 l408 0 q120 -115 120 -120 q-35 -40 -40 -40 l-568 0 ZM764 40 q-120 115 -120 120 l0 408 q115 120 120 120 q40 -35 40 -40 l0 -568 q-35 -40 -40 -40 ZM40 44 q-40 35 -40 40 l0 568 q35 40 40 40 q120 -115 120 -120 l0 -408 q-115 -120 -120 -120 ZM160 628 q-80 75 -80 80 l0 4 q75 80 80 80 l472 0 q80 -75 80 -80 l0 -4 q-75 -80 -80 -80 l-472 0 ZM40 732 q-40 35 -40 40 l0 616 q35 40 40 40 q120 -115 120 -120 l0 -456 q-115 -120 -120 -120 ZM432 836 q64 151 184 492 q0 37 164 96 l4 0 q0 -8 20 -48 q-88 -250 -104 -284 q-60 -217 -144 -260 l-116 0 l-8 4 Z"></path></symbol><symbol id="s" viewBox="0 -270 2048 2048"><path d="M120 0 q-40 35 -40 40 q115 120 120 120 l408 0 q120 -115 120 -120 q-35 -40 -40 -40 l-568 0 ZM40 44 q-40 35 -40 40 l0 568 q35 40 40 40 q120 -115 120 -120 l0 -408 q-115 -120 -120 -120 ZM160 628 q-80 75 -80 80 l0 4 q75 80 80 80 l472 0 q80 -75 80 -80 l0 -4 q-75 -80 -80 -80 l-472 0 ZM764 736 q-120 115 -120 120 l0 408 q115 120 120 120 q40 -35 40 -40 l0 -568 q-35 -40 -40 -40 ZM196 1268 q-120 115 -120 120 q35 40 40 40 l568 0 q40 -35 40 -40 q-115 -120 -120 -120 l-408 0 Z"></path></symbol><symbol id="t" viewBox="0 -270 2048 2048"><path d="M40 0 q-40 35 -40 40 q115 120 120 120 l564 0 q120 -115 120 -120 q-35 -40 -40 -40 l-724 0 ZM388 232 q-40 35 -40 40 l0 484 q35 40 40 40 q120 -115 120 -120 l0 -324 q-115 -120 -120 -120 ZM468 868 q-120 115 -120 120 l0 320 q115 120 120 120 q40 -35 40 -40 l0 -480 q-35 -40 -40 -40 Z"></path></symbol><symbol id="u" viewBox="0 -270 2048 2048"><path d="M40 0 q-40 35 -40 40 l0 616 q35 40 40 40 q120 -115 120 -120 l0 -456 q-115 -120 -120 -120 ZM764 0 q-120 115 -120 120 l0 456 q115 120 120 120 q40 -35 40 -40 l0 -616 q-35 -40 -40 -40 ZM40 736 q-40 35 -40 40 l0 568 q35 40 40 40 q120 -115 120 -120 l0 -408 q-115 -120 -120 -120 ZM764 740 q-120 115 -120 120 l0 408 q115 120 120 120 q40 -35 40 -40 l0 -568 q-35 -40 -40 -40 ZM200 1268 q-120 115 -120 120 q35 40 40 40 l568 0 q40 -35 40 -40 q-115 -120 -120 -120 l-408 0 Z"></path></symbol><symbol id="v" viewBox="0 -270 2048 2048"><path d="M40 0 q-40 35 -40 40 l0 760 q35 40 40 40 q120 -115 120 -120 l0 -600 q-115 -120 -120 -120 ZM756 0 q-116 111 -116 116 l0 588 q115 120 120 120 q40 -35 40 -40 l0 -748 q-31 -36 -36 -36 l-8 0 ZM16 872 q-8 14 -16 56 q249 405 280 448 q15 44 68 44 l4 0 q9 0 40 -168 q-193 -305 -208 -336 q-14 -8 -168 -44 ZM788 884 q-27 0 -164 36 q-8 4 -216 344 q30 146 40 164 q8 0 48 -8 l304 -476 q0 -20 -12 -60 Z"></path></symbol><symbol id="w" viewBox="0 -270 2048 2048"><path d="M40 0 q-40 35 -40 40 l0 760 q35 40 40 40 q120 -115 120 -120 l0 -600 q-115 -120 -120 -120 ZM760 0 q-120 115 -120 120 l0 680 q35 40 40 40 q120 -115 120 -120 l0 -680 q-35 -40 -40 -40 ZM1400 0 q-120 115 -120 120 l0 600 q115 120 120 120 q40 -35 40 -40 l0 -760 q-35 -40 -40 -40 ZM16 888 q-8 14 -16 56 q249 405 280 448 q15 44 68 44 l4 0 q9 0 40 -168 q-193 -305 -208 -336 q-14 -8 -168 -44 ZM788 900 q-27 0 -164 36 q-8 4 -216 344 q30 146 40 164 q57 0 72 -40 q153 -233 272 -488 l0 -8 l-4 -8 ZM1428 900 q-27 0 -164 36 q-8 4 -216 344 q30 146 40 164 q8 0 48 -8 l304 -476 q0 -20 -12 -60 ZM836 960 q-8 4 -88 160 l172 272 q15 44 68 44 l4 0 q9 0 40 -168 q-186 -299 -196 -308 Z"></path></symbol><symbol id="x" viewBox="0 -270 2048 2048"><path d="M16 0 q-16 29 -16 60 l280 452 q0 28 68 40 q8 -12 40 -168 l-200 -328 q0 -18 -172 -56 ZM628 40 q-6 2 -212 344 q33 168 40 168 q37 -12 48 -12 q16 -16 300 -484 q-8 -42 -16 -56 l-160 40 ZM200 636 q-120 115 -120 120 q35 40 40 40 l480 0 q120 -115 120 -120 q-35 -40 -40 -40 l-480 0 ZM300 892 q-29 35 -300 480 q0 15 12 56 q26 0 160 -36 q20 -24 216 -340 q-32 -163 -40 -172 l-48 12 ZM456 880 q-8 7 -40 164 q29 57 196 324 q0 30 168 60 q17 0 24 -52 q-149 -249 -276 -448 q0 -34 -72 -48 Z"></path></symbol><symbol id="y" viewBox="0 -270 2048 2048"><path d="M40 0 q-40 35 -40 40 l0 328 q35 40 40 40 q120 -115 120 -120 l0 -168 q-115 -120 -120 -120 ZM760 0 q-120 115 -120 120 l0 168 q115 120 120 120 q40 -35 40 -40 l0 -328 q-35 -40 -40 -40 ZM16 440 q-8 14 -16 56 q249 405 280 448 q15 44 68 44 l4 0 q9 0 40 -168 q-193 -305 -208 -336 q-14 -8 -168 -44 ZM788 452 q-27 0 -164 36 q-8 4 -216 344 q30 146 40 164 q8 0 48 -8 l304 -476 q0 -20 -12 -60 ZM424 1020 q-120 115 -120 120 l0 168 q115 120 120 120 q40 -35 40 -40 l0 -328 q-35 -40 -40 -40 Z"></path></symbol><symbol id="z" viewBox="0 -270 2048 2048"><path d="M40 0 q-40 35 -40 40 q115 120 120 120 l408 0 q120 -115 120 -120 q-35 -40 -40 -40 l-568 0 ZM692 124 q-5 0 -52 12 q-225 389 -240 408 q1 41 44 172 q5 0 52 -12 q235 -405 240 -408 q0 -37 -44 -172 ZM356 720 q-5 0 -52 12 q-225 389 -240 408 q1 41 44 172 l52 -12 q235 -405 240 -408 q0 -37 -44 -172 ZM264 1268 q-120 115 -120 120 q35 40 40 40 l568 0 q40 -35 40 -40 q-115 -120 -120 -120 l-408 0 Z"></path></symbol><symbol id="braceleft" viewBox="0 -270 2048 2048"><path d="M432 0 q-120 115 -120 120 l0 456 q115 120 120 120 q40 -35 40 -40 l0 -616 q-35 -40 -40 -40 ZM72 696 q-72 67 -72 72 q18 24 24 24 l292 0 q72 -67 72 -72 q-18 -24 -24 -24 l-292 0 ZM432 780 q-120 115 -120 120 l0 408 q115 120 120 120 q40 -35 40 -40 l0 -568 q-35 -40 -40 -40 Z"></path></symbol><symbol id="bar" viewBox="0 -270 2048 2048"><path d="M120 446 q-120 115 -120 120 l0 408 q115 120 120 120 q40 -35 40 -40 l0 -568 q-35 -40 -40 -40 ZM120 1142 q-120 115 -120 120 l0 408 q115 120 120 120 q40 -35 40 -40 l0 -568 q-35 -40 -40 -40 ZM120 -240 q-120 115 -120 120 l0 408 q115 120 120 120 q40 -35 40 -40 l0 -568 q-35 -40 -40 -40 Z"></path></symbol><symbol id="braceright" viewBox="0 -270 2048 2048"><path d="M40 0 q-5 0 -40 40 l0 616 q0 5 40 40 q5 0 120 -120 l0 -456 q0 -5 -120 -120 ZM400 696 l-292 0 q-6 0 -24 24 q0 5 72 72 l292 0 q6 0 24 -24 q0 -5 -72 -72 ZM40 780 q-5 0 -40 40 l0 568 q0 5 40 40 q5 0 120 -120 l0 -408 q0 -5 -120 -120 Z"></path></symbol><symbol id="asciitilde" viewBox="0 -270 2048 2048"><path d="M273 1016 q-25 2 -29 2 q-6 1 -229 258 q0 22 5 36 l96 -7 q5 0 166 -185 q-5 -89 -9 -104 ZM299 1035 q-5 17 -5 34 q186 217 227 260 l29 0 q7 0 12 -101 q-137 -154 -157 -181 q0 -5 -106 -12 ZM732 1042 q-5 0 -166 186 q5 101 12 101 l29 0 q102 -114 224 -258 l0 -31 l-2 -5 l-97 7 Z"></path></symbol><symbol id="exclamdown" viewBox="0 -270 2048 2048"><path d="M68 1174 q5 0 120 -120 l0 -324 q0 -5 -120 -120 q-5 0 -40 40 l0 484 q0 5 40 40 ZM148 638 q5 0 40 -40 l0 -480 q0 -5 -40 -40 q-5 0 -120 120 l0 320 q0 5 120 120 ZM64 -10 l84 0 q8 -1 8 -8 l0 -4 q-44 -56 -64 -56 l-8 0 q-21 0 -48 36 l0 4 q0 6 28 28 ZM176 -50 l4 0 q5 0 36 -36 l0 -84 q0 -6 -12 -12 l-4 0 q-52 43 -52 48 l0 36 q0 32 28 48 ZM16 -74 q6 0 52 -52 l0 -52 q-24 -24 -24 -32 l-8 0 q-5 0 -36 36 l0 84 q0 6 16 16 ZM112 -182 l20 0 q25 0 52 -36 q0 -5 -32 -32 l-84 0 q-8 0 -8 8 l0 4 q0 10 52 56 Z"></path></symbol><symbol id="cent" viewBox="0 -270 2048 2048"><path d=""></path></symbol><symbol id="sterling" viewBox="0 -270 2048 2048"><path d=""></path></symbol><symbol id="currency" viewBox="0 -270 2048 2048"><path d=""></path></symbol><symbol id="yen" viewBox="0 -270 2048 2048"><path d=""></path></symbol><symbol id="brokenbar" viewBox="0 -270 2048 2048"><path d=""></path></symbol><symbol id="section" viewBox="0 -270 2048 2048"><path d=""></path></symbol><symbol id="dieresis" viewBox="0 -270 2048 2048"><path d="M240 1175 q-96 90 -96 96 l0 8 q90 96 96 96 l8 0 q96 -90 96 -96 l0 -8 q-90 -96 -96 -96 l-8 0 ZM830 1179 q-96 90 -96 96 l0 8 q90 96 96 96 l8 0 q96 -90 96 -96 l0 -8 q-90 -96 -96 -96 l-8 0 Z"></path></symbol><symbol id="copyright" viewBox="0 -270 2048 2048"><path d=""></path></symbol><symbol id="ordfeminine" viewBox="0 -270 2048 2048"><path d=""></path></symbol><symbol id="guillemotleft" viewBox="0 -270 2048 2048"><path d=""></path></symbol><symbol id="logicalnot" viewBox="0 -270 2048 2048"><path d=""></path></symbol><symbol id="registered" viewBox="0 -270 2048 2048"><path d=""></path></symbol><symbol id="macron" viewBox="0 -270 2048 2048"><path d=""></path></symbol><symbol id="degree" viewBox="0 -270 2048 2048"><path d="M259 1117 q-64 59 -64 64 l0 4 q15 20 20 20 l108 0 q64 -59 64 -64 l0 -4 q-15 -20 -20 -20 l-108 0 ZM391 1157 q-20 15 -20 20 l0 108 q59 64 64 64 l4 0 q20 -15 20 -20 l0 -108 q-59 -64 -64 -64 l-4 0 ZM191 1205 q-20 15 -20 20 l0 108 q59 64 64 64 l4 0 q20 -15 20 -20 l0 -108 q-59 -64 -64 -64 l-4 0 ZM307 1349 q-64 59 -64 64 l0 4 q15 20 20 20 l108 0 q64 -59 64 -64 l0 -4 q-15 -20 -20 -20 l-108 0 Z"></path></symbol><symbol id="uni00B2" viewBox="0 -270 2048 2048"><path d=""></path></symbol><symbol id="uni00B3" viewBox="0 -270 2048 2048"><path d=""></path></symbol><symbol id="acute" viewBox="0 -270 2048 2048"><path d="M440 1221 q-25 0 -104 152 q34 160 48 160 l8 0 q14 0 36 -4 q17 -14 172 -288 q-7 -43 -16 -56 l-144 36 Z"></path></symbol><symbol id="mu" viewBox="0 -270 2048 2048"><path d=""></path></symbol><symbol id="paragraph" viewBox="0 -270 2048 2048"><path d=""></path></symbol><symbol id="periodcentered" viewBox="0 -270 2048 2048"><path d=""></path></symbol><symbol id="cedilla" viewBox="0 -270 2048 2048"><path d=""></path></symbol><symbol id="uni00B9" viewBox="0 -270 2048 2048"><path d=""></path></symbol><symbol id="ordmasculine" viewBox="0 -270 2048 2048"><path d=""></path></symbol><symbol id="guillemotright" viewBox="0 -270 2048 2048"><path d=""></path></symbol><symbol id="onequarter" viewBox="0 -270 2048 2048"><path d=""></path></symbol><symbol id="onehalf" viewBox="0 -270 2048 2048"><path d=""></path></symbol><symbol id="threequarters" viewBox="0 -270 2048 2048"><path d=""></path></symbol><symbol id="questiondown" viewBox="0 -270 2048 2048"><path d="M688 1428 q40 -35 40 -40 q-115 -120 -120 -120 l-408 0 q-120 115 -120 120 q35 40 40 40 l568 0 ZM40 1384 q120 -115 120 -120 l0 -408 q-115 -120 -120 -120 q-40 35 -40 40 l0 568 q35 40 40 40 ZM632 800 q80 -75 80 -80 l0 -4 q-75 -80 -80 -80 l-472 0 q-80 75 -80 80 l0 4 q75 80 80 80 l472 0 ZM648 564 q80 -75 80 -80 l0 -208 q-75 -80 -80 -80 q-84 79 -84 84 l0 200 q79 84 84 84 ZM652 156 q76 -71 76 -76 l0 -4 q-71 -76 -76 -76 l-4 0 q-76 71 -76 76 l0 4 q71 76 76 76 l4 0 Z"></path></symbol><symbol id="AE" viewBox="0 -270 2048 2048"><path d="M120 0 q-40 35 -40 40 q115 120 120 120 l408 0 q120 -115 120 -120 q-35 -40 -40 -40 l-568 0 ZM764 40 q-120 115 -120 120 l0 408 q115 120 120 120 q40 -35 40 -40 l0 -568 q-35 -40 -40 -40 ZM40 44 q-40 35 -40 40 l0 568 q35 40 40 40 q120 -115 120 -120 l0 -408 q-115 -120 -120 -120 ZM160 628 q-80 75 -80 80 l0 4 q75 80 80 80 l472 0 q80 -75 80 -80 l0 -4 q-75 -80 -80 -80 l-472 0 ZM40 732 q-40 35 -40 40 l0 616 q35 40 40 40 q120 -115 120 -120 l0 -456 q-115 -120 -120 -120 ZM764 732 q-120 115 -120 120 l0 456 q115 120 120 120 q40 -35 40 -40 l0 -616 q-35 -40 -40 -40 ZM860 0 q-40 35 -40 40 q115 120 120 120 l408 0 q120 -115 120 -120 q-35 -40 -40 -40 l-568 0 ZM900 628 q-80 75 -80 80 l0 4 q75 80 80 80 l472 0 q80 -75 80 -80 l0 -4 q-75 -80 -80 -80 l-472 0 ZM936 1268 q-120 115 -120 120 q35 40 40 40 l568 0 q40 -35 40 -40 q-115 -120 -120 -120 l-408 0 Z"></path></symbol><symbol id="Ccedilla" viewBox="0 -270 2048 2048"><path d=""></path></symbol><symbol id="Eth" viewBox="0 -270 2048 2048"><path d=""></path></symbol><symbol id="multiply" viewBox="0 -270 2048 2048"><path d=""></path></symbol><symbol id="Oslash" viewBox="0 -270 2048 2048"><path d=""></path></symbol><symbol id="Yacute" viewBox="0 -270 2048 2048"><path d=""></path></symbol><symbol id="Thorn" viewBox="0 -270 2048 2048"><path d=""></path></symbol><symbol id="germandbls" viewBox="0 -270 2048 2048"><path d=""></path></symbol><symbol id="agrave" viewBox="0 -270 2048 2048"><path d="M120 515 q-40 35 -40 40 q115 120 120 120 l408 0 q120 -115 120 -120 q-35 -40 -40 -40 l-568 0 ZM764 555 q-120 115 -120 120 l0 408 q115 120 120 120 q40 -35 40 -40 l0 -568 q-35 -40 -40 -40 ZM40 559 q-40 35 -40 40 l0 568 q35 40 40 40 q120 -115 120 -120 l0 -408 q-115 -120 -120 -120 ZM160 1143 q-80 75 -80 80 l0 4 q75 80 80 80 l472 0 q80 -75 80 -80 l0 -4 q-75 -80 -80 -80 l-472 0 ZM40 1247 q-40 35 -40 40 l0 616 q35 40 40 40 q120 -115 120 -120 l0 -456 q-115 -120 -120 -120 ZM764 1247 q-120 115 -120 120 l0 456 q115 120 120 120 q40 -35 40 -40 l0 -616 q-35 -40 -40 -40 ZM242 0 q-9 13 -16 56 q155 274 172 288 q22 4 36 4 l8 0 q14 0 48 -160 q-79 -152 -104 -152 l-144 -36 Z"></path></symbol><symbol id="aacute" viewBox="0 -270 2048 2048"><path d="M120 515 q-40 35 -40 40 q115 120 120 120 l408 0 q120 -115 120 -120 q-35 -40 -40 -40 l-568 0 ZM764 555 q-120 115 -120 120 l0 408 q115 120 120 120 q40 -35 40 -40 l0 -568 q-35 -40 -40 -40 ZM40 559 q-40 35 -40 40 l0 568 q35 40 40 40 q120 -115 120 -120 l0 -408 q-115 -120 -120 -120 ZM160 1143 q-80 75 -80 80 l0 4 q75 80 80 80 l472 0 q80 -75 80 -80 l0 -4 q-75 -80 -80 -80 l-472 0 ZM40 1247 q-40 35 -40 40 l0 616 q35 40 40 40 q120 -115 120 -120 l0 -456 q-115 -120 -120 -120 ZM764 1247 q-120 115 -120 120 l0 456 q115 120 120 120 q40 -35 40 -40 l0 -616 q-35 -40 -40 -40 ZM428 36 q-25 0 -104 152 q34 160 48 160 l8 0 q14 0 36 -4 q17 -14 172 -288 q-7 -43 -16 -56 l-144 36 Z"></path></symbol><symbol id="acircumflex" viewBox="0 -270 2048 2048"><path d="M120 505 q-40 35 -40 40 q115 120 120 120 l408 0 q120 -115 120 -120 q-35 -40 -40 -40 l-568 0 ZM764 545 q-120 115 -120 120 l0 408 q115 120 120 120 q40 -35 40 -40 l0 -568 q-35 -40 -40 -40 ZM40 549 q-40 35 -40 40 l0 568 q35 40 40 40 q120 -115 120 -120 l0 -408 q-115 -120 -120 -120 ZM160 1133 q-80 75 -80 80 l0 4 q75 80 80 80 l472 0 q80 -75 80 -80 l0 -4 q-75 -80 -80 -80 l-472 0 ZM40 1237 q-40 35 -40 40 l0 616 q35 40 40 40 q120 -115 120 -120 l0 -456 q-115 -120 -120 -120 ZM764 1237 q-120 115 -120 120 l0 456 q115 120 120 120 q40 -35 40 -40 l0 -616 q-35 -40 -40 -40 ZM242 36 q-25 0 -104 152 q34 160 48 160 l8 0 q14 0 36 -4 q17 -14 172 -288 q-7 -43 -16 -56 l-144 36 ZM418 4 q-9 13 -16 56 q155 274 172 288 q22 4 36 4 l8 0 q14 0 48 -160 q-79 -152 -104 -152 l-144 -36 Z"></path></symbol><symbol id="atilde" viewBox="0 -270 2048 2048"><path d="M120 517 q-40 35 -40 40 q115 120 120 120 l408 0 q120 -115 120 -120 q-35 -40 -40 -40 l-568 0 ZM764 557 q-120 115 -120 120 l0 408 q115 120 120 120 q40 -35 40 -40 l0 -568 q-35 -40 -40 -40 ZM40 561 q-40 35 -40 40 l0 568 q35 40 40 40 q120 -115 120 -120 l0 -408 q-115 -120 -120 -120 ZM160 1145 q-80 75 -80 80 l0 4 q75 80 80 80 l472 0 q80 -75 80 -80 l0 -4 q-75 -80 -80 -80 l-472 0 ZM40 1249 q-40 35 -40 40 l0 616 q35 40 40 40 q120 -115 120 -120 l0 -456 q-115 -120 -120 -120 ZM764 1249 q-120 115 -120 120 l0 456 q115 120 120 120 q40 -35 40 -40 l0 -616 q-35 -40 -40 -40 ZM86 36 q-25 0 -104 152 q34 160 48 160 l8 0 q14 0 36 -4 q17 -14 172 -288 q-7 -43 -16 -56 l-144 36 ZM286 0 q-10 0 -20 48 q0 12 148 268 q13 32 60 32 l8 0 q13 0 48 -156 q0 -5 -76 -136 q0 -16 -168 -56 ZM662 36 q-25 0 -104 152 q34 160 48 160 l8 0 q14 0 36 -4 q17 -14 172 -288 q-7 -43 -16 -56 l-144 36 Z"></path></symbol><symbol id="adieresis" viewBox="0 -270 2048 2048"><path d="M120 361 q-40 35 -40 40 q115 120 120 120 l408 0 q120 -115 120 -120 q-35 -40 -40 -40 l-568 0 ZM764 401 q-120 115 -120 120 l0 408 q115 120 120 120 q40 -35 40 -40 l0 -568 q-35 -40 -40 -40 ZM40 405 q-40 35 -40 40 l0 568 q35 40 40 40 q120 -115 120 -120 l0 -408 q-115 -120 -120 -120 ZM160 989 q-80 75 -80 80 l0 4 q75 80 80 80 l472 0 q80 -75 80 -80 l0 -4 q-75 -80 -80 -80 l-472 0 ZM40 1093 q-40 35 -40 40 l0 616 q35 40 40 40 q120 -115 120 -120 l0 -456 q-115 -120 -120 -120 ZM764 1093 q-120 115 -120 120 l0 456 q115 120 120 120 q40 -35 40 -40 l0 -616 q-35 -40 -40 -40 ZM143 0 q-96 90 -96 96 l0 8 q90 96 96 96 l8 0 q96 -90 96 -96 l0 -8 q-90 -96 -96 -96 l-8 0 ZM733 4 q-96 90 -96 96 l0 8 q90 96 96 96 l8 0 q96 -90 96 -96 l0 -8 q-90 -96 -96 -96 l-8 0 Z"></path></symbol><symbol id="aring" viewBox="0 -270 2048 2048"><path d="M120 367 q-40 35 -40 40 q115 120 120 120 l408 0 q120 -115 120 -120 q-35 -40 -40 -40 l-568 0 ZM764 407 q-120 115 -120 120 l0 408 q115 120 120 120 q40 -35 40 -40 l0 -568 q-35 -40 -40 -40 ZM40 411 q-40 35 -40 40 l0 568 q35 40 40 40 q120 -115 120 -120 l0 -408 q-115 -120 -120 -120 ZM160 995 q-80 75 -80 80 l0 4 q75 80 80 80 l472 0 q80 -75 80 -80 l0 -4 q-75 -80 -80 -80 l-472 0 ZM40 1099 q-40 35 -40 40 l0 616 q35 40 40 40 q120 -115 120 -120 l0 -456 q-115 -120 -120 -120 ZM764 1099 q-120 115 -120 120 l0 456 q115 120 120 120 q40 -35 40 -40 l0 -616 q-35 -40 -40 -40 ZM398 0 q-96 90 -96 96 l0 8 q90 96 96 96 l8 0 q96 -90 96 -96 l0 -8 q-90 -96 -96 -96 l-8 0 Z"></path></symbol><symbol id="ccedilla" viewBox="0 -270 2048 2048"><path d=""></path></symbol><symbol id="egrave" viewBox="0 -270 2048 2048"><path d="M120 515 q-40 35 -40 40 q115 120 120 120 l408 0 q120 -115 120 -120 q-35 -40 -40 -40 l-568 0 ZM40 559 q-40 35 -40 40 l0 568 q35 40 40 40 q120 -115 120 -120 l0 -408 q-115 -120 -120 -120 ZM160 1143 q-80 75 -80 80 l0 4 q75 80 80 80 l472 0 q80 -75 80 -80 l0 -4 q-75 -80 -80 -80 l-472 0 ZM40 1247 q-40 35 -40 40 l0 568 q35 40 40 40 q120 -115 120 -120 l0 -408 q-115 -120 -120 -120 ZM196 1783 q-120 115 -120 120 q35 40 40 40 l568 0 q40 -35 40 -40 q-115 -120 -120 -120 l-408 0 ZM204 0 q-9 13 -16 56 q155 274 172 288 q22 4 36 4 l8 0 q14 0 48 -160 q-79 -152 -104 -152 l-144 -36 Z"></path></symbol><symbol id="eacute" viewBox="0 -270 2048 2048"><path d="M120 515 q-40 35 -40 40 q115 120 120 120 l408 0 q120 -115 120 -120 q-35 -40 -40 -40 l-568 0 ZM40 559 q-40 35 -40 40 l0 568 q35 40 40 40 q120 -115 120 -120 l0 -408 q-115 -120 -120 -120 ZM160 1143 q-80 75 -80 80 l0 4 q75 80 80 80 l472 0 q80 -75 80 -80 l0 -4 q-75 -80 -80 -80 l-472 0 ZM40 1247 q-40 35 -40 40 l0 568 q35 40 40 40 q120 -115 120 -120 l0 -408 q-115 -120 -120 -120 ZM196 1783 q-120 115 -120 120 q35 40 40 40 l568 0 q40 -35 40 -40 q-115 -120 -120 -120 l-408 0 ZM390 36 q-25 0 -104 152 q34 160 48 160 l8 0 q14 0 36 -4 q17 -14 172 -288 q-7 -43 -16 -56 l-144 36 Z"></path></symbol><symbol id="ecircumflex" viewBox="0 -270 2048 2048"><path d="M120 505 q-40 35 -40 40 q115 120 120 120 l408 0 q120 -115 120 -120 q-35 -40 -40 -40 l-568 0 ZM40 549 q-40 35 -40 40 l0 568 q35 40 40 40 q120 -115 120 -120 l0 -408 q-115 -120 -120 -120 ZM160 1133 q-80 75 -80 80 l0 4 q75 80 80 80 l472 0 q80 -75 80 -80 l0 -4 q-75 -80 -80 -80 l-472 0 ZM40 1237 q-40 35 -40 40 l0 568 q35 40 40 40 q120 -115 120 -120 l0 -408 q-115 -120 -120 -120 ZM196 1773 q-120 115 -120 120 q35 40 40 40 l568 0 q40 -35 40 -40 q-115 -120 -120 -120 l-408 0 ZM204 36 q-25 0 -104 152 q34 160 48 160 l8 0 q14 0 36 -4 q17 -14 172 -288 q-7 -43 -16 -56 l-144 36 ZM380 4 q-9 13 -16 56 q155 274 172 288 q22 4 36 4 l8 0 q14 0 48 -160 q-79 -152 -104 -152 l-144 -36 Z"></path></symbol><symbol id="edieresis" viewBox="0 -270 2048 2048"><path d="M89 361 q-40 35 -40 40 q115 120 120 120 l408 0 q120 -115 120 -120 q-35 -40 -40 -40 l-568 0 ZM9 405 q-40 35 -40 40 l0 568 q35 40 40 40 q120 -115 120 -120 l0 -408 q-115 -120 -120 -120 ZM129 989 q-80 75 -80 80 l0 4 q75 80 80 80 l472 0 q80 -75 80 -80 l0 -4 q-75 -80 -80 -80 l-472 0 ZM9 1093 q-40 35 -40 40 l0 568 q35 40 40 40 q120 -115 120 -120 l0 -408 q-115 -120 -120 -120 ZM165 1629 q-120 115 -120 120 q35 40 40 40 l568 0 q40 -35 40 -40 q-115 -120 -120 -120 l-408 0 ZM74 0 q-96 90 -96 96 l0 8 q90 96 96 96 l8 0 q96 -90 96 -96 l0 -8 q-90 -96 -96 -96 l-8 0 ZM664 4 q-96 90 -96 96 l0 8 q90 96 96 96 l8 0 q96 -90 96 -96 l0 -8 q-90 -96 -96 -96 l-8 0 Z"></path></symbol><symbol id="igrave" viewBox="0 -270 2048 2048"><path d="M40 515 q-40 35 -40 40 l0 616 q35 40 40 40 q120 -115 120 -120 l0 -456 q-115 -120 -120 -120 ZM120 1247 q-120 115 -120 120 l0 456 q115 120 120 120 q40 -35 40 -40 l0 -616 q-35 -40 -40 -40 ZM-80 0 q-9 13 -16 56 q155 274 172 288 q22 4 36 4 l8 0 q14 0 48 -160 q-79 -152 -104 -152 l-144 -36 Z"></path></symbol><symbol id="iacute" viewBox="0 -270 2048 2048"><path d="M32 515 q-40 35 -40 40 l0 616 q35 40 40 40 q120 -115 120 -120 l0 -456 q-115 -120 -120 -120 ZM112 1247 q-120 115 -120 120 l0 456 q115 120 120 120 q40 -35 40 -40 l0 -616 q-35 -40 -40 -40 ZM98 36 q-25 0 -104 152 q34 160 48 160 l8 0 q14 0 36 -4 q17 -14 172 -288 q-7 -43 -16 -56 l-144 36 Z"></path></symbol><symbol id="icircumflex" viewBox="0 -270 2048 2048"><path d="M40 505 q-40 35 -40 40 l0 616 q35 40 40 40 q120 -115 120 -120 l0 -456 q-115 -120 -120 -120 ZM120 1237 q-120 115 -120 120 l0 456 q115 120 120 120 q40 -35 40 -40 l0 -616 q-35 -40 -40 -40 ZM-80 36 q-25 0 -104 152 q34 160 48 160 l8 0 q14 0 36 -4 q17 -14 172 -288 q-7 -43 -16 -56 l-144 36 ZM96 4 q-9 13 -16 56 q155 274 172 288 q22 4 36 4 l8 0 q14 0 48 -160 q-79 -152 -104 -152 l-144 -36 Z"></path></symbol><symbol id="idieresis" viewBox="0 -270 2048 2048"><path d="M0 361 q-40 35 -40 40 l0 616 q35 40 40 40 q120 -115 120 -120 l0 -456 q-115 -120 -120 -120 ZM80 1093 q-120 115 -120 120 l0 456 q115 120 120 120 q40 -35 40 -40 l0 -616 q-35 -40 -40 -40 ZM-219 0 q-96 90 -96 96 l0 8 q90 96 96 96 l8 0 q96 -90 96 -96 l0 -8 q-90 -96 -96 -96 l-8 0 ZM371 4 q-96 90 -96 96 l0 8 q90 96 96 96 l8 0 q96 -90 96 -96 l0 -8 q-90 -96 -96 -96 l-8 0 Z"></path></symbol><symbol id="eth" viewBox="0 -270 2048 2048"><path d=""></path></symbol><symbol id="ntilde" viewBox="0 -270 2048 2048"><path d="M40 517 q-40 35 -40 40 l0 616 q35 40 40 40 q120 -115 120 -120 l0 -456 q-115 -120 -120 -120 ZM764 517 q-120 115 -120 120 l0 456 q115 120 120 120 q40 -35 40 -40 l0 -616 q-35 -40 -40 -40 ZM204 681 q-7 0 -8 8 l0 160 q165 160 336 340 l8 -4 q0 4 4 4 l48 0 q8 0 8 -8 l0 -160 q-73 -80 -84 -80 q-187 -196 -264 -260 l-48 0 ZM40 1249 q-40 35 -40 40 l0 616 q35 40 40 40 q120 -115 120 -120 l0 -456 q-115 -120 -120 -120 ZM764 1249 q-120 115 -120 120 l0 456 q115 120 120 120 q40 -35 40 -40 l0 -616 q-35 -40 -40 -40 ZM86 36 q-25 0 -104 152 q34 160 48 160 l8 0 q14 0 36 -4 q17 -14 172 -288 q-7 -43 -16 -56 l-144 36 ZM286 0 q-10 0 -20 48 q0 12 148 268 q13 32 60 32 l8 0 q13 0 48 -156 q0 -5 -76 -136 q0 -16 -168 -56 ZM662 36 q-25 0 -104 152 q34 160 48 160 l8 0 q14 0 36 -4 q17 -14 172 -288 q-7 -43 -16 -56 l-144 36 Z"></path></symbol><symbol id="ograve" viewBox="0 -270 2048 2048"><path d="M120 515 q-40 35 -40 40 q115 120 120 120 l408 0 q120 -115 120 -120 q-35 -40 -40 -40 l-568 0 ZM764 555 q-120 115 -120 120 l0 408 q115 120 120 120 q40 -35 40 -40 l0 -568 q-35 -40 -40 -40 ZM40 559 q-40 35 -40 40 l0 568 q35 40 40 40 q120 -115 120 -120 l0 -408 q-115 -120 -120 -120 ZM40 1247 q-40 35 -40 40 l0 568 q35 40 40 40 q120 -115 120 -120 l0 -408 q-115 -120 -120 -120 ZM764 1251 q-120 115 -120 120 l0 408 q115 120 120 120 q40 -35 40 -40 l0 -568 q-35 -40 -40 -40 ZM196 1783 q-120 115 -120 120 q35 40 40 40 l568 0 q40 -35 40 -40 q-115 -120 -120 -120 l-408 0 ZM242 0 q-9 13 -16 56 q155 274 172 288 q22 4 36 4 l8 0 q14 0 48 -160 q-79 -152 -104 -152 l-144 -36 Z"></path></symbol><symbol id="oacute" viewBox="0 -270 2048 2048"><path d="M120 515 q-40 35 -40 40 q115 120 120 120 l408 0 q120 -115 120 -120 q-35 -40 -40 -40 l-568 0 ZM764 555 q-120 115 -120 120 l0 408 q115 120 120 120 q40 -35 40 -40 l0 -568 q-35 -40 -40 -40 ZM40 559 q-40 35 -40 40 l0 568 q35 40 40 40 q120 -115 120 -120 l0 -408 q-115 -120 -120 -120 ZM40 1247 q-40 35 -40 40 l0 568 q35 40 40 40 q120 -115 120 -120 l0 -408 q-115 -120 -120 -120 ZM764 1251 q-120 115 -120 120 l0 408 q115 120 120 120 q40 -35 40 -40 l0 -568 q-35 -40 -40 -40 ZM196 1783 q-120 115 -120 120 q35 40 40 40 l568 0 q40 -35 40 -40 q-115 -120 -120 -120 l-408 0 ZM428 36 q-25 0 -104 152 q34 160 48 160 l8 0 q14 0 36 -4 q17 -14 172 -288 q-7 -43 -16 -56 l-144 36 Z"></path></symbol><symbol id="ocircumflex" viewBox="0 -270 2048 2048"><path d="M120 505 q-40 35 -40 40 q115 120 120 120 l408 0 q120 -115 120 -120 q-35 -40 -40 -40 l-568 0 ZM764 545 q-120 115 -120 120 l0 408 q115 120 120 120 q40 -35 40 -40 l0 -568 q-35 -40 -40 -40 ZM40 549 q-40 35 -40 40 l0 568 q35 40 40 40 q120 -115 120 -120 l0 -408 q-115 -120 -120 -120 ZM40 1237 q-40 35 -40 40 l0 568 q35 40 40 40 q120 -115 120 -120 l0 -408 q-115 -120 -120 -120 ZM764 1241 q-120 115 -120 120 l0 408 q115 120 120 120 q40 -35 40 -40 l0 -568 q-35 -40 -40 -40 ZM196 1773 q-120 115 -120 120 q35 40 40 40 l568 0 q40 -35 40 -40 q-115 -120 -120 -120 l-408 0 ZM242 36 q-25 0 -104 152 q34 160 48 160 l8 0 q14 0 36 -4 q17 -14 172 -288 q-7 -43 -16 -56 l-144 36 ZM418 4 q-9 13 -16 56 q155 274 172 288 q22 4 36 4 l8 0 q14 0 48 -160 q-79 -152 -104 -152 l-144 -36 Z"></path></symbol><symbol id="otilde" viewBox="0 -270 2048 2048"><path d="M120 517 q-40 35 -40 40 q115 120 120 120 l408 0 q120 -115 120 -120 q-35 -40 -40 -40 l-568 0 ZM764 557 q-120 115 -120 120 l0 408 q115 120 120 120 q40 -35 40 -40 l0 -568 q-35 -40 -40 -40 ZM40 561 q-40 35 -40 40 l0 568 q35 40 40 40 q120 -115 120 -120 l0 -408 q-115 -120 -120 -120 ZM40 1249 q-40 35 -40 40 l0 568 q35 40 40 40 q120 -115 120 -120 l0 -408 q-115 -120 -120 -120 ZM764 1253 q-120 115 -120 120 l0 408 q115 120 120 120 q40 -35 40 -40 l0 -568 q-35 -40 -40 -40 ZM196 1785 q-120 115 -120 120 q35 40 40 40 l568 0 q40 -35 40 -40 q-115 -120 -120 -120 l-408 0 ZM86 36 q-25 0 -104 152 q34 160 48 160 l8 0 q14 0 36 -4 q17 -14 172 -288 q-7 -43 -16 -56 l-144 36 ZM286 0 q-10 0 -20 48 q0 12 148 268 q13 32 60 32 l8 0 q13 0 48 -156 q0 -5 -76 -136 q0 -16 -168 -56 ZM662 36 q-25 0 -104 152 q34 160 48 160 l8 0 q14 0 36 -4 q17 -14 172 -288 q-7 -43 -16 -56 l-144 36 Z"></path></symbol><symbol id="odieresis" viewBox="0 -270 2048 2048"><path d="M120 361 q-40 35 -40 40 q115 120 120 120 l408 0 q120 -115 120 -120 q-35 -40 -40 -40 l-568 0 ZM764 401 q-120 115 -120 120 l0 408 q115 120 120 120 q40 -35 40 -40 l0 -568 q-35 -40 -40 -40 ZM40 405 q-40 35 -40 40 l0 568 q35 40 40 40 q120 -115 120 -120 l0 -408 q-115 -120 -120 -120 ZM40 1093 q-40 35 -40 40 l0 568 q35 40 40 40 q120 -115 120 -120 l0 -408 q-115 -120 -120 -120 ZM764 1097 q-120 115 -120 120 l0 408 q115 120 120 120 q40 -35 40 -40 l0 -568 q-35 -40 -40 -40 ZM196 1629 q-120 115 -120 120 q35 40 40 40 l568 0 q40 -35 40 -40 q-115 -120 -120 -120 l-408 0 ZM143 0 q-96 90 -96 96 l0 8 q90 96 96 96 l8 0 q96 -90 96 -96 l0 -8 q-90 -96 -96 -96 l-8 0 ZM733 4 q-96 90 -96 96 l0 8 q90 96 96 96 l8 0 q96 -90 96 -96 l0 -8 q-90 -96 -96 -96 l-8 0 Z"></path></symbol><symbol id="oslash" viewBox="0 -270 2048 2048"><path d=""></path></symbol><symbol id="ugrave" viewBox="0 -270 2048 2048"><path d="M40 515 q-40 35 -40 40 l0 616 q35 40 40 40 q120 -115 120 -120 l0 -456 q-115 -120 -120 -120 ZM764 515 q-120 115 -120 120 l0 456 q115 120 120 120 q40 -35 40 -40 l0 -616 q-35 -40 -40 -40 ZM40 1251 q-40 35 -40 40 l0 568 q35 40 40 40 q120 -115 120 -120 l0 -408 q-115 -120 -120 -120 ZM764 1255 q-120 115 -120 120 l0 408 q115 120 120 120 q40 -35 40 -40 l0 -568 q-35 -40 -40 -40 ZM200 1783 q-120 115 -120 120 q35 40 40 40 l568 0 q40 -35 40 -40 q-115 -120 -120 -120 l-408 0 ZM242 0 q-9 13 -16 56 q155 274 172 288 q22 4 36 4 l8 0 q14 0 48 -160 q-79 -152 -104 -152 l-144 -36 Z"></path></symbol><symbol id="uacute" viewBox="0 -270 2048 2048"><path d="M40 515 q-40 35 -40 40 l0 616 q35 40 40 40 q120 -115 120 -120 l0 -456 q-115 -120 -120 -120 ZM764 515 q-120 115 -120 120 l0 456 q115 120 120 120 q40 -35 40 -40 l0 -616 q-35 -40 -40 -40 ZM40 1251 q-40 35 -40 40 l0 568 q35 40 40 40 q120 -115 120 -120 l0 -408 q-115 -120 -120 -120 ZM764 1255 q-120 115 -120 120 l0 408 q115 120 120 120 q40 -35 40 -40 l0 -568 q-35 -40 -40 -40 ZM200 1783 q-120 115 -120 120 q35 40 40 40 l568 0 q40 -35 40 -40 q-115 -120 -120 -120 l-408 0 ZM428 36 q-25 0 -104 152 q34 160 48 160 l8 0 q14 0 36 -4 q17 -14 172 -288 q-7 -43 -16 -56 l-144 36 Z"></path></symbol><symbol id="ucircumflex" viewBox="0 -270 2048 2048"><path d="M40 505 q-40 35 -40 40 l0 616 q35 40 40 40 q120 -115 120 -120 l0 -456 q-115 -120 -120 -120 ZM764 505 q-120 115 -120 120 l0 456 q115 120 120 120 q40 -35 40 -40 l0 -616 q-35 -40 -40 -40 ZM40 1241 q-40 35 -40 40 l0 568 q35 40 40 40 q120 -115 120 -120 l0 -408 q-115 -120 -120 -120 ZM764 1245 q-120 115 -120 120 l0 408 q115 120 120 120 q40 -35 40 -40 l0 -568 q-35 -40 -40 -40 ZM200 1773 q-120 115 -120 120 q35 40 40 40 l568 0 q40 -35 40 -40 q-115 -120 -120 -120 l-408 0 ZM242 36 q-25 0 -104 152 q34 160 48 160 l8 0 q14 0 36 -4 q17 -14 172 -288 q-7 -43 -16 -56 l-144 36 ZM418 4 q-9 13 -16 56 q155 274 172 288 q22 4 36 4 l8 0 q14 0 48 -160 q-79 -152 -104 -152 l-144 -36 Z"></path></symbol><symbol id="udieresis" viewBox="0 -270 2048 2048"><path d="M40 361 q-40 35 -40 40 l0 616 q35 40 40 40 q120 -115 120 -120 l0 -456 q-115 -120 -120 -120 ZM764 361 q-120 115 -120 120 l0 456 q115 120 120 120 q40 -35 40 -40 l0 -616 q-35 -40 -40 -40 ZM40 1097 q-40 35 -40 40 l0 568 q35 40 40 40 q120 -115 120 -120 l0 -408 q-115 -120 -120 -120 ZM764 1101 q-120 115 -120 120 l0 408 q115 120 120 120 q40 -35 40 -40 l0 -568 q-35 -40 -40 -40 ZM200 1629 q-120 115 -120 120 q35 40 40 40 l568 0 q40 -35 40 -40 q-115 -120 -120 -120 l-408 0 ZM143 0 q-96 90 -96 96 l0 8 q90 96 96 96 l8 0 q96 -90 96 -96 l0 -8 q-90 -96 -96 -96 l-8 0 ZM733 4 q-96 90 -96 96 l0 8 q90 96 96 96 l8 0 q96 -90 96 -96 l0 -8 q-90 -96 -96 -96 l-8 0 Z"></path></symbol><symbol id="yacute" viewBox="0 -270 2048 2048"><path d=""></path></symbol><symbol id="thorn" viewBox="0 -270 2048 2048"><path d=""></path></symbol><symbol id="ydieresis" viewBox="0 -270 2048 2048"><path d=""></path></symbol><symbol id="dotlessi" viewBox="0 -270 2048 2048"><path d=""></path></symbol><symbol id="circumflex" viewBox="0 -270 2048 2048"><path d="M300 1207 q-25 0 -104 152 q34 160 48 160 l8 0 q14 0 36 -4 q17 -14 172 -288 q-7 -43 -16 -56 l-144 36 ZM476 1175 q-9 13 -16 56 q155 274 172 288 q22 4 36 4 l8 0 q14 0 48 -160 q-79 -152 -104 -152 l-144 -36 Z"></path></symbol><symbol id="caron" viewBox="0 -270 2048 2048"><path d=""></path></symbol><symbol id="uni02C9" viewBox="0 -270 2048 2048"><path d=""></path></symbol><symbol id="breve" viewBox="0 -270 2048 2048"><path d=""></path></symbol><symbol id="dotaccent" viewBox="0 -270 2048 2048"><path d=""></path></symbol><symbol id="ring" viewBox="0 -270 2048 2048"><path d="M470 1185 q-96 90 -96 96 l0 8 q90 96 96 96 l8 0 q96 -90 96 -96 l0 -8 q-90 -96 -96 -96 l-8 0 Z"></path></symbol><symbol id="ogonek" viewBox="0 -270 2048 2048"><path d=""></path></symbol><symbol id="tilde" viewBox="0 -270 2048 2048"><path d="M173 1223 q-25 0 -104 152 q34 160 48 160 l8 0 q14 0 36 -4 q17 -14 172 -288 q-7 -43 -16 -56 l-144 36 ZM373 1187 q-10 0 -20 48 q0 12 148 268 q13 32 60 32 l8 0 q13 0 48 -156 q0 -5 -76 -136 q0 -16 -168 -56 ZM749 1223 q-25 0 -104 152 q34 160 48 160 l8 0 q14 0 36 -4 q17 -14 172 -288 q-7 -43 -16 -56 l-144 36 Z"></path></symbol><symbol id="hungarumlaut" viewBox="0 -270 2048 2048"><path d=""></path></symbol><symbol id="endash" viewBox="0 -270 2048 2048"><path d="M89 0 q-80 75 -80 80 l0 4 q75 80 80 80 l472 0 q80 -75 80 -80 l0 -4 q-75 -80 -80 -80 l-472 0 Z"></path></symbol><symbol id="emdash" viewBox="0 -270 2048 2048"><path d="M89 0 q-80 75 -80 80 l0 4 q75 80 80 80 l472 0 q80 -75 80 -80 l0 -4 q-75 -80 -80 -80 l-472 0 Z"></path></symbol><symbol id="quoteleft" viewBox="0 -270 2048 2048"><path d=""></path></symbol><symbol id="quoteright" viewBox="0 -270 2048 2048"><path d=""></path></symbol><symbol id="quotesinglbase" viewBox="0 -270 2048 2048"><path d=""></path></symbol><symbol id="quotedblleft" viewBox="0 -270 2048 2048"><path d="M20 1783 q-20 15 -20 20 l0 292 q15 20 20 20 q60 -55 60 -60 l0 -212 q-55 -60 -60 -60 ZM221 1783 q-20 15 -20 20 l0 292 q15 20 20 20 q60 -55 60 -60 l0 -212 q-55 -60 -60 -60 Z"></path></symbol><symbol id="quotedblright" viewBox="0 -270 2048 2048"><path d="M261 1783 q-5 0 -60 60 l0 212 q0 5 60 60 q5 0 20 -20 l0 -292 q0 -5 -20 -20 ZM60 1783 q-5 0 -60 60 l0 212 q0 5 60 60 q5 0 20 -20 l0 -292 q0 -5 -20 -20 Z"></path></symbol><symbol id="quotedblbase" viewBox="0 -270 2048 2048"><path d=""></path></symbol><symbol id="dagger" viewBox="0 -270 2048 2048"><path d=""></path></symbol><symbol id="daggerdbl" viewBox="0 -270 2048 2048"><path d=""></path></symbol><symbol id="bullet" viewBox="0 -270 2048 2048"><path d=""></path></symbol><symbol id="ellipsis" viewBox="0 -270 2048 2048"><path d=""></path></symbol><symbol id="guilsinglleft" viewBox="0 -270 2048 2048"><path d=""></path></symbol><symbol id="guilsinglright" viewBox="0 -270 2048 2048"><path d=""></path></symbol><symbol id="fraction" viewBox="0 -270 2048 2048"><path d=""></path></symbol><symbol id="franc" viewBox="0 -270 2048 2048"><path d=""></path></symbol><symbol id="lira" viewBox="0 -270 2048 2048"><path d=""></path></symbol><symbol id="peseta" viewBox="0 -270 2048 2048"><path d=""></path></symbol><symbol id="Euro" viewBox="0 -270 2048 2048"><path d=""></path></symbol><symbol id="afii61352" viewBox="0 -270 2048 2048"><path d=""></path></symbol><symbol id="trademark" viewBox="0 -270 2048 2048"><path d=""></path></symbol><symbol id="partialdiff" viewBox="0 -270 2048 2048"><path d=""></path></symbol><symbol id="Delta" viewBox="0 -270 2048 2048"><path d=""></path></symbol><symbol id="product" viewBox="0 -270 2048 2048"><path d=""></path></symbol><symbol id="summation" viewBox="0 -270 2048 2048"><path d=""></path></symbol><symbol id="minus" viewBox="0 -270 2048 2048"><path d="M89 810 q-80 75 -80 80 l0 4 q75 80 80 80 l472 0 q80 -75 80 -80 l0 -4 q-75 -80 -80 -80 l-472 0 Z"></path></symbol><symbol id="radical" viewBox="0 -270 2048 2048"><path d=""></path></symbol><symbol id="infinity" viewBox="0 -270 2048 2048"><path d=""></path></symbol><symbol id="integral" viewBox="0 -270 2048 2048"><path d=""></path></symbol><symbol id="approxequal" viewBox="0 -270 2048 2048"><path d=""></path></symbol><symbol id="lessequal" viewBox="0 -270 2048 2048"><path d=""></path></symbol><symbol id="greaterequal" viewBox="0 -270 2048 2048"><path d=""></path></symbol><symbol id="uniF001" viewBox="0 -270 2048 2048"><path d=""></path></symbol><symbol id="uniF002" viewBox="0 -270 2048 2048"><path d=""></path></symbol></defs></svg>